G04 #@! TF.GenerationSoftware,KiCad,Pcbnew,(5.1.10-1-10_14)*
G04 #@! TF.CreationDate,2021-08-06T16:45:07+03:00*
G04 #@! TF.ProjectId,hhv_coin,6868765f-636f-4696-9e2e-6b696361645f,rev?*
G04 #@! TF.SameCoordinates,Original*
G04 #@! TF.FileFunction,Copper,L1,Top*
G04 #@! TF.FilePolarity,Positive*
%FSLAX46Y46*%
G04 Gerber Fmt 4.6, Leading zero omitted, Abs format (unit mm)*
G04 Created by KiCad (PCBNEW (5.1.10-1-10_14)) date 2021-08-06 16:45:07*
%MOMM*%
%LPD*%
G01*
G04 APERTURE LIST*
G04 #@! TA.AperFunction,NonConductor*
%ADD10C,0.150000*%
G04 #@! TD*
G04 #@! TA.AperFunction,EtchedComponent*
%ADD11C,0.010000*%
G04 #@! TD*
G04 APERTURE END LIST*
D10*
X-8971428Y-15152380D02*
X-8971428Y-14152380D01*
X-8733333Y-14152380D01*
X-8590476Y-14200000D01*
X-8495238Y-14295238D01*
X-8447619Y-14390476D01*
X-8400000Y-14580952D01*
X-8400000Y-14723809D01*
X-8447619Y-14914285D01*
X-8495238Y-15009523D01*
X-8590476Y-15104761D01*
X-8733333Y-15152380D01*
X-8971428Y-15152380D01*
X-7400000Y-15057142D02*
X-7447619Y-15104761D01*
X-7590476Y-15152380D01*
X-7685714Y-15152380D01*
X-7828571Y-15104761D01*
X-7923809Y-15009523D01*
X-7971428Y-14914285D01*
X-8019047Y-14723809D01*
X-8019047Y-14580952D01*
X-7971428Y-14390476D01*
X-7923809Y-14295238D01*
X-7828571Y-14200000D01*
X-7685714Y-14152380D01*
X-7590476Y-14152380D01*
X-7447619Y-14200000D01*
X-7400000Y-14247619D01*
X-6257142Y-14247619D02*
X-6209523Y-14200000D01*
X-6114285Y-14152380D01*
X-5876190Y-14152380D01*
X-5780952Y-14200000D01*
X-5733333Y-14247619D01*
X-5685714Y-14342857D01*
X-5685714Y-14438095D01*
X-5733333Y-14580952D01*
X-6304761Y-15152380D01*
X-5685714Y-15152380D01*
X-5209523Y-15152380D02*
X-5019047Y-15152380D01*
X-4923809Y-15104761D01*
X-4876190Y-15057142D01*
X-4780952Y-14914285D01*
X-4733333Y-14723809D01*
X-4733333Y-14342857D01*
X-4780952Y-14247619D01*
X-4828571Y-14200000D01*
X-4923809Y-14152380D01*
X-5114285Y-14152380D01*
X-5209523Y-14200000D01*
X-5257142Y-14247619D01*
X-5304761Y-14342857D01*
X-5304761Y-14580952D01*
X-5257142Y-14676190D01*
X-5209523Y-14723809D01*
X-5114285Y-14771428D01*
X-4923809Y-14771428D01*
X-4828571Y-14723809D01*
X-4780952Y-14676190D01*
X-4733333Y-14580952D01*
X1599999Y-15057142D02*
X1552380Y-15104761D01*
X1409523Y-15152380D01*
X1314285Y-15152380D01*
X1171428Y-15104761D01*
X1076190Y-15009523D01*
X1028571Y-14914285D01*
X980952Y-14723809D01*
X980952Y-14580952D01*
X1028571Y-14390476D01*
X1076190Y-14295238D01*
X1171428Y-14200000D01*
X1314285Y-14152380D01*
X1409523Y-14152380D01*
X1552380Y-14200000D01*
X1599999Y-14247619D01*
X2028571Y-15152380D02*
X2028571Y-14152380D01*
X2457142Y-15152380D02*
X2457142Y-14628571D01*
X2409523Y-14533333D01*
X2314285Y-14485714D01*
X2171428Y-14485714D01*
X2076190Y-14533333D01*
X2028571Y-14580952D01*
X3361904Y-15152380D02*
X3361904Y-14628571D01*
X3314285Y-14533333D01*
X3219047Y-14485714D01*
X3028571Y-14485714D01*
X2933333Y-14533333D01*
X3361904Y-15104761D02*
X3266666Y-15152380D01*
X3028571Y-15152380D01*
X2933333Y-15104761D01*
X2885714Y-15009523D01*
X2885714Y-14914285D01*
X2933333Y-14819047D01*
X3028571Y-14771428D01*
X3266666Y-14771428D01*
X3361904Y-14723809D01*
X3980952Y-15152380D02*
X3885714Y-15104761D01*
X3838095Y-15009523D01*
X3838095Y-14152380D01*
X4504761Y-15152380D02*
X4409523Y-15104761D01*
X4361904Y-15009523D01*
X4361904Y-14152380D01*
X5266666Y-15104761D02*
X5171428Y-15152380D01*
X4980952Y-15152380D01*
X4885714Y-15104761D01*
X4838095Y-15009523D01*
X4838095Y-14628571D01*
X4885714Y-14533333D01*
X4980952Y-14485714D01*
X5171428Y-14485714D01*
X5266666Y-14533333D01*
X5314285Y-14628571D01*
X5314285Y-14723809D01*
X4838095Y-14819047D01*
X5742857Y-14485714D02*
X5742857Y-15152380D01*
X5742857Y-14580952D02*
X5790476Y-14533333D01*
X5885714Y-14485714D01*
X6028571Y-14485714D01*
X6123809Y-14533333D01*
X6171428Y-14628571D01*
X6171428Y-15152380D01*
X7076190Y-14485714D02*
X7076190Y-15295238D01*
X7028571Y-15390476D01*
X6980952Y-15438095D01*
X6885714Y-15485714D01*
X6742857Y-15485714D01*
X6647619Y-15438095D01*
X7076190Y-15104761D02*
X6980952Y-15152380D01*
X6790476Y-15152380D01*
X6695238Y-15104761D01*
X6647619Y-15057142D01*
X6599999Y-14961904D01*
X6599999Y-14676190D01*
X6647619Y-14580952D01*
X6695238Y-14533333D01*
X6790476Y-14485714D01*
X6980952Y-14485714D01*
X7076190Y-14533333D01*
X7933333Y-15104761D02*
X7838095Y-15152380D01*
X7647619Y-15152380D01*
X7552380Y-15104761D01*
X7504761Y-15009523D01*
X7504761Y-14628571D01*
X7552380Y-14533333D01*
X7647619Y-14485714D01*
X7838095Y-14485714D01*
X7933333Y-14533333D01*
X7980952Y-14628571D01*
X7980952Y-14723809D01*
X7504761Y-14819047D01*
D11*
G36*
X-478481Y18299946D02*
G01*
X97097Y18279275D01*
X647337Y18243225D01*
X695500Y18239198D01*
X1600905Y18141120D01*
X2496515Y18002390D01*
X3381125Y17823618D01*
X4253535Y17605412D01*
X5112541Y17348383D01*
X5956942Y17053141D01*
X6785535Y16720296D01*
X7597118Y16350456D01*
X8390489Y15944233D01*
X9164445Y15502236D01*
X9917785Y15025074D01*
X10649305Y14513358D01*
X11357805Y13967696D01*
X12042081Y13388700D01*
X12700931Y12776979D01*
X13333153Y12133142D01*
X13838379Y11573000D01*
X14412285Y10879623D01*
X14951323Y10163024D01*
X15454894Y9424419D01*
X15922405Y8665023D01*
X16353257Y7886053D01*
X16746855Y7088725D01*
X17102602Y6274254D01*
X17419904Y5443857D01*
X17698162Y4598750D01*
X17936782Y3740149D01*
X18135167Y2869269D01*
X18155563Y2767435D01*
X18306588Y1893606D01*
X18416263Y1012959D01*
X18484641Y127497D01*
X18511776Y-760775D01*
X18497721Y-1649852D01*
X18442531Y-2537732D01*
X18346258Y-3422410D01*
X18208955Y-4301883D01*
X18030678Y-5174145D01*
X17932360Y-5582583D01*
X17692965Y-6444532D01*
X17413954Y-7291895D01*
X17095753Y-8123831D01*
X16738787Y-8939500D01*
X16343480Y-9738060D01*
X15910258Y-10518671D01*
X15439545Y-11280493D01*
X14931766Y-12022683D01*
X14387346Y-12744403D01*
X14189117Y-12990916D01*
X13934120Y-13294270D01*
X13655017Y-13610766D01*
X13359276Y-13932623D01*
X13054363Y-14252059D01*
X12747744Y-14561292D01*
X12446887Y-14852540D01*
X12159258Y-15118023D01*
X12083166Y-15185748D01*
X11376705Y-15782180D01*
X10652719Y-16340221D01*
X9910454Y-16860352D01*
X9149151Y-17343052D01*
X8368054Y-17788802D01*
X7566407Y-18198082D01*
X6759750Y-18564416D01*
X5933546Y-18895682D01*
X5096751Y-19187675D01*
X4247644Y-19440816D01*
X3384505Y-19655528D01*
X2505612Y-19832236D01*
X1609247Y-19971360D01*
X693689Y-20073324D01*
X579083Y-20083369D01*
X455420Y-20091828D01*
X295652Y-20099539D01*
X106005Y-20106437D01*
X-107299Y-20112454D01*
X-338036Y-20117524D01*
X-579982Y-20121579D01*
X-826912Y-20124552D01*
X-1072604Y-20126378D01*
X-1310833Y-20126988D01*
X-1535376Y-20126316D01*
X-1740009Y-20124295D01*
X-1918508Y-20120858D01*
X-2064649Y-20115938D01*
X-2130250Y-20112497D01*
X-3062288Y-20034005D01*
X-3979840Y-19915736D01*
X-4882929Y-19757683D01*
X-5771575Y-19559839D01*
X-6645800Y-19322197D01*
X-7505627Y-19044752D01*
X-8351077Y-18727494D01*
X-9182171Y-18370419D01*
X-9998932Y-17973518D01*
X-10801381Y-17536785D01*
X-11459066Y-17142474D01*
X-12041103Y-16763312D01*
X-12613026Y-16359517D01*
X-13181188Y-15926353D01*
X-13751942Y-15459085D01*
X-13983584Y-15260533D01*
X-14084613Y-15170261D01*
X-14209636Y-15054408D01*
X-14353487Y-14918088D01*
X-14511001Y-14766409D01*
X-14677012Y-14604484D01*
X-14846356Y-14437422D01*
X-15013867Y-14270335D01*
X-15174380Y-14108334D01*
X-15322730Y-13956529D01*
X-15453752Y-13820032D01*
X-15562280Y-13703953D01*
X-15610111Y-13651114D01*
X-16205123Y-12952319D01*
X-16762537Y-12234175D01*
X-17282216Y-11496967D01*
X-17764023Y-10740981D01*
X-18207822Y-9966501D01*
X-18613474Y-9173814D01*
X-18980843Y-8363204D01*
X-19309792Y-7534957D01*
X-19600183Y-6689358D01*
X-19851880Y-5826693D01*
X-20064745Y-4947247D01*
X-20238642Y-4051306D01*
X-20248161Y-3995083D01*
X-20354135Y-3262332D01*
X-20430590Y-2506461D01*
X-20477266Y-1734949D01*
X-20493902Y-955273D01*
X-20488340Y-637566D01*
X-18825649Y-637566D01*
X-18818004Y-1412750D01*
X-18771369Y-2267996D01*
X-18683292Y-3116252D01*
X-18554271Y-3956288D01*
X-18384804Y-4786877D01*
X-18175387Y-5606793D01*
X-17926520Y-6414807D01*
X-17638698Y-7209692D01*
X-17312421Y-7990220D01*
X-16948184Y-8755165D01*
X-16546487Y-9503298D01*
X-16107825Y-10233391D01*
X-15632698Y-10944218D01*
X-15121602Y-11634551D01*
X-14575035Y-12303163D01*
X-14258002Y-12662833D01*
X-13997052Y-12942513D01*
X-13708543Y-13236378D01*
X-13400976Y-13536436D01*
X-13082849Y-13834692D01*
X-12762663Y-14123154D01*
X-12448918Y-14393828D01*
X-12195000Y-14602860D01*
X-11503985Y-15130690D01*
X-10790304Y-15623081D01*
X-10055279Y-16079476D01*
X-9300231Y-16499320D01*
X-8526481Y-16882055D01*
X-7735350Y-17227124D01*
X-6928159Y-17533971D01*
X-6106229Y-17802040D01*
X-5270882Y-18030773D01*
X-4423439Y-18219614D01*
X-3565220Y-18368006D01*
X-3114500Y-18429076D01*
X-2958181Y-18447498D01*
X-2792376Y-18465719D01*
X-2630396Y-18482364D01*
X-2485552Y-18496059D01*
X-2384250Y-18504473D01*
X-2269768Y-18513117D01*
X-2164317Y-18521255D01*
X-2078170Y-18528082D01*
X-2021599Y-18532793D01*
X-2013834Y-18533495D01*
X-1952221Y-18539213D01*
X-1904371Y-18543627D01*
X-1902709Y-18543779D01*
X-1897190Y-18542673D01*
X-1892246Y-18536825D01*
X-1887847Y-18524037D01*
X-1883960Y-18502111D01*
X-1880554Y-18468847D01*
X-1877597Y-18422046D01*
X-1875058Y-18359512D01*
X-1872906Y-18279043D01*
X-1871107Y-18178443D01*
X-1869632Y-18055513D01*
X-1868448Y-17908053D01*
X-1867524Y-17733865D01*
X-1866828Y-17530751D01*
X-1866329Y-17296512D01*
X-1865995Y-17028950D01*
X-1865794Y-16725865D01*
X-1865696Y-16385059D01*
X-1865667Y-16004334D01*
X-1865667Y-13382500D01*
X-405167Y-13382500D01*
X-405167Y-18570607D01*
X-167042Y-18557751D01*
X-53184Y-18551325D01*
X86135Y-18543044D01*
X234143Y-18533923D01*
X374065Y-18524982D01*
X388583Y-18524031D01*
X1237912Y-18447187D01*
X2082174Y-18329054D01*
X2919603Y-18170409D01*
X3748437Y-17972031D01*
X4566910Y-17734699D01*
X5373258Y-17459190D01*
X6165717Y-17146284D01*
X6942522Y-16796757D01*
X7701910Y-16411390D01*
X8442116Y-15990960D01*
X9161376Y-15536246D01*
X9857926Y-15048026D01*
X10530000Y-14527078D01*
X11175836Y-13974180D01*
X11603435Y-13576200D01*
X12224961Y-12950019D01*
X12808895Y-12304632D01*
X13355740Y-11639296D01*
X13866000Y-10953265D01*
X14340180Y-10245793D01*
X14778784Y-9516137D01*
X15182316Y-8763550D01*
X15551280Y-7987288D01*
X15829884Y-7328833D01*
X16122873Y-6540874D01*
X16376273Y-5740086D01*
X16590088Y-4928344D01*
X16764324Y-4107527D01*
X16898986Y-3279513D01*
X16994079Y-2446179D01*
X17049609Y-1609404D01*
X17065581Y-771065D01*
X17042001Y66960D01*
X16978873Y902794D01*
X16876202Y1734558D01*
X16733995Y2560375D01*
X16552257Y3378367D01*
X16330991Y4186656D01*
X16070205Y4983365D01*
X15793203Y5709834D01*
X15447664Y6501094D01*
X15066386Y7270605D01*
X14650486Y8017445D01*
X14201083Y8740691D01*
X13719292Y9439422D01*
X13206231Y10112717D01*
X12663016Y10759653D01*
X12090766Y11379309D01*
X11490597Y11970762D01*
X10863625Y12533092D01*
X10210969Y13065376D01*
X9533745Y13566692D01*
X8833069Y14036119D01*
X8110060Y14472734D01*
X7365834Y14875617D01*
X6601508Y15243845D01*
X5818199Y15576496D01*
X5017024Y15872648D01*
X4199101Y16131381D01*
X3365546Y16351771D01*
X2727500Y16492009D01*
X1923985Y16635657D01*
X1124007Y16742483D01*
X315272Y16814007D01*
X-40042Y16834374D01*
X-341667Y16848927D01*
X-341667Y8884834D01*
X6135333Y8884834D01*
X6656171Y8884778D01*
X7165981Y8884615D01*
X7663145Y8884348D01*
X8146040Y8883981D01*
X8613049Y8883519D01*
X9062550Y8882967D01*
X9492924Y8882328D01*
X9902551Y8881606D01*
X10289810Y8880807D01*
X10653082Y8879934D01*
X10990747Y8878992D01*
X11301185Y8877984D01*
X11582775Y8876916D01*
X11833898Y8875792D01*
X12052934Y8874615D01*
X12238263Y8873390D01*
X12388265Y8872122D01*
X12501320Y8870815D01*
X12575808Y8869473D01*
X12610108Y8868100D01*
X12612333Y8867648D01*
X12602904Y8847898D01*
X12574974Y8791395D01*
X12529075Y8699200D01*
X12465740Y8572372D01*
X12385500Y8411971D01*
X12288889Y8219058D01*
X12176440Y7994693D01*
X12048684Y7739935D01*
X11906154Y7455844D01*
X11749384Y7143481D01*
X11578905Y6803906D01*
X11395250Y6438179D01*
X11198952Y6047360D01*
X10990543Y5632508D01*
X10770555Y5194685D01*
X10539523Y4734949D01*
X10297977Y4254362D01*
X10046451Y3753983D01*
X9785477Y3234871D01*
X9515588Y2698088D01*
X9237316Y2144694D01*
X8951194Y1575747D01*
X8657754Y992309D01*
X8357529Y395440D01*
X8051052Y-213801D01*
X7738856Y-834354D01*
X7421472Y-1465158D01*
X7164938Y-1974977D01*
X1717544Y-12800416D01*
X5857897Y-12811000D01*
X9998250Y-12821583D01*
X10004156Y-13102041D01*
X10010062Y-13382500D01*
X-405167Y-13382500D01*
X-1865667Y-13382500D01*
X-12279667Y-13382500D01*
X-12279667Y-12811000D01*
X-8088667Y-12811000D01*
X-7670744Y-12810931D01*
X-7264242Y-12810731D01*
X-6871175Y-12810405D01*
X-6493557Y-12809960D01*
X-6133403Y-12809403D01*
X-5792725Y-12808740D01*
X-5473538Y-12807978D01*
X-5177856Y-12807123D01*
X-4907692Y-12806183D01*
X-4665061Y-12805163D01*
X-4451976Y-12804070D01*
X-4270452Y-12802911D01*
X-4122502Y-12801693D01*
X-4010140Y-12800422D01*
X-3935380Y-12799104D01*
X-3900236Y-12797747D01*
X-3897667Y-12797265D01*
X-3907084Y-12777713D01*
X-3934978Y-12721398D01*
X-3980819Y-12629378D01*
X-4044073Y-12502716D01*
X-4124208Y-12342470D01*
X-4220693Y-12149703D01*
X-4332995Y-11925474D01*
X-4460582Y-11670845D01*
X-4602921Y-11386875D01*
X-4759481Y-11074625D01*
X-4929730Y-10735156D01*
X-5113134Y-10369529D01*
X-5309162Y-9978803D01*
X-5517282Y-9564040D01*
X-5736962Y-9126300D01*
X-5967668Y-8666644D01*
X-6208870Y-8186132D01*
X-6460035Y-7685824D01*
X-6720630Y-7166782D01*
X-6990124Y-6630066D01*
X-7267984Y-6076736D01*
X-7553678Y-5507853D01*
X-7846674Y-4924478D01*
X-8146440Y-4327671D01*
X-8452443Y-3718493D01*
X-8764152Y-3098003D01*
X-9081033Y-2467264D01*
X-9332209Y-1967344D01*
X-9652799Y-1329277D01*
X-9968656Y-700617D01*
X-10279247Y-82426D01*
X-10584038Y524236D01*
X-10882497Y1118307D01*
X-11174090Y1698726D01*
X-11458286Y2264432D01*
X-11734549Y2814364D01*
X-12002349Y3347460D01*
X-12261151Y3862659D01*
X-12510423Y4358901D01*
X-12749632Y4835123D01*
X-12978244Y5290265D01*
X-13195727Y5723266D01*
X-13401548Y6133064D01*
X-13595174Y6518598D01*
X-13776071Y6878808D01*
X-13943707Y7212631D01*
X-14097549Y7519006D01*
X-14237063Y7796874D01*
X-14361718Y8045171D01*
X-14470979Y8262837D01*
X-14481859Y8284517D01*
X-9887834Y8284517D01*
X-9878226Y8265279D01*
X-9849998Y8210190D01*
X-9804040Y8120971D01*
X-9741242Y7999341D01*
X-9662496Y7847018D01*
X-9568692Y7665722D01*
X-9460721Y7457171D01*
X-9339473Y7223085D01*
X-9205840Y6965183D01*
X-9060712Y6685184D01*
X-8904980Y6384806D01*
X-8739535Y6065770D01*
X-8565266Y5729794D01*
X-8383066Y5378597D01*
X-8193825Y5013898D01*
X-7998434Y4637416D01*
X-7797783Y4250871D01*
X-7790266Y4236392D01*
X-5692698Y195917D01*
X-5703805Y-2571625D01*
X-5714912Y-5339166D01*
X-3074851Y-5339166D01*
X-2073384Y-7327625D01*
X-1071917Y-9316083D01*
X-77136Y-7327625D01*
X917645Y-5339166D01*
X2198281Y-5339169D01*
X3478916Y-5339173D01*
X3464960Y40901D01*
X5604480Y4155544D01*
X5807472Y4545981D01*
X6005239Y4926464D01*
X6196896Y5295288D01*
X6381560Y5650749D01*
X6558346Y5991143D01*
X6726371Y6314765D01*
X6884751Y6619912D01*
X7032602Y6904878D01*
X7169040Y7167961D01*
X7293182Y7407454D01*
X7404144Y7621654D01*
X7501041Y7808858D01*
X7582991Y7967359D01*
X7649108Y8095455D01*
X7698510Y8191441D01*
X7730312Y8253612D01*
X7743631Y8280264D01*
X7744000Y8281177D01*
X7723064Y8281936D01*
X7661184Y8282681D01*
X7559748Y8283411D01*
X7420144Y8284124D01*
X7243761Y8284818D01*
X7031988Y8285492D01*
X6786212Y8286144D01*
X6507823Y8286772D01*
X6198209Y8287374D01*
X5858759Y8287950D01*
X5490861Y8288496D01*
X5095904Y8289011D01*
X4675276Y8289494D01*
X4230366Y8289942D01*
X3762563Y8290355D01*
X3273254Y8290730D01*
X2763829Y8291066D01*
X2235677Y8291360D01*
X1690185Y8291611D01*
X1128742Y8291818D01*
X552737Y8291979D01*
X-36442Y8292091D01*
X-637405Y8292154D01*
X-1071917Y8292167D01*
X-1680429Y8292149D01*
X-2278145Y8292095D01*
X-2863676Y8292007D01*
X-3435635Y8291886D01*
X-3992631Y8291733D01*
X-4533278Y8291549D01*
X-5056185Y8291336D01*
X-5559966Y8291095D01*
X-6043230Y8290826D01*
X-6504590Y8290531D01*
X-6942658Y8290212D01*
X-7356043Y8289869D01*
X-7743359Y8289504D01*
X-8103216Y8289118D01*
X-8434225Y8288712D01*
X-8734999Y8288288D01*
X-9004149Y8287846D01*
X-9240286Y8287387D01*
X-9442021Y8286914D01*
X-9607966Y8286427D01*
X-9736733Y8285927D01*
X-9826933Y8285416D01*
X-9877177Y8284894D01*
X-9887834Y8284517D01*
X-14481859Y8284517D01*
X-14564314Y8448812D01*
X-14641189Y8602033D01*
X-14701073Y8721439D01*
X-14743431Y8805970D01*
X-14767731Y8854564D01*
X-14773806Y8866838D01*
X-14753484Y8868289D01*
X-14692452Y8869710D01*
X-14592332Y8871095D01*
X-14454746Y8872441D01*
X-14281318Y8873741D01*
X-14073671Y8874993D01*
X-13833426Y8876192D01*
X-13562207Y8877332D01*
X-13261636Y8878409D01*
X-12933336Y8879420D01*
X-12578930Y8880358D01*
X-12200040Y8881221D01*
X-11798289Y8882002D01*
X-11375301Y8882699D01*
X-10932696Y8883305D01*
X-10472099Y8883817D01*
X-9995133Y8884230D01*
X-9503418Y8884539D01*
X-8998579Y8884741D01*
X-8482238Y8884830D01*
X-8344431Y8884834D01*
X-1908000Y8884834D01*
X-1908000Y16822334D01*
X-1976792Y16822213D01*
X-2031401Y16820043D01*
X-2120346Y16814118D01*
X-2235863Y16805132D01*
X-2370189Y16793782D01*
X-2515562Y16780762D01*
X-2664217Y16766767D01*
X-2808392Y16752492D01*
X-2940323Y16738633D01*
X-3051000Y16726034D01*
X-3917771Y16600731D01*
X-4773542Y16434846D01*
X-5617124Y16228948D01*
X-6447330Y15983602D01*
X-7262972Y15699375D01*
X-8062862Y15376834D01*
X-8845811Y15016544D01*
X-9610631Y14619074D01*
X-10356135Y14184988D01*
X-11081134Y13714855D01*
X-11784439Y13209239D01*
X-12464864Y12668709D01*
X-13121220Y12093830D01*
X-13484138Y11750976D01*
X-14083653Y11139813D01*
X-14651858Y10501349D01*
X-15187826Y9837186D01*
X-15690628Y9148926D01*
X-16159339Y8438174D01*
X-16593031Y7706532D01*
X-16990777Y6955604D01*
X-17351650Y6186992D01*
X-17674723Y5402299D01*
X-17959068Y4603128D01*
X-18203759Y3791082D01*
X-18300198Y3423834D01*
X-18483501Y2615851D01*
X-18627203Y1810340D01*
X-18731798Y1002680D01*
X-18797782Y188251D01*
X-18825649Y-637566D01*
X-20488340Y-637566D01*
X-20480238Y-174909D01*
X-20436011Y598665D01*
X-20416508Y830917D01*
X-20315628Y1714053D01*
X-20173779Y2588096D01*
X-19991584Y3451848D01*
X-19769666Y4304114D01*
X-19508647Y5143695D01*
X-19209149Y5969397D01*
X-18871794Y6780021D01*
X-18497205Y7574373D01*
X-18086005Y8351254D01*
X-17638814Y9109468D01*
X-17156256Y9847819D01*
X-16638952Y10565110D01*
X-16087526Y11260144D01*
X-15502599Y11931725D01*
X-14884794Y12578656D01*
X-14234733Y13199740D01*
X-13771401Y13609430D01*
X-13070384Y14182304D01*
X-12345913Y14720255D01*
X-11599179Y15222785D01*
X-10831370Y15689393D01*
X-10043673Y16119581D01*
X-9237279Y16512850D01*
X-8413375Y16868699D01*
X-7573150Y17186629D01*
X-6717794Y17466141D01*
X-5848493Y17706736D01*
X-4966438Y17907913D01*
X-4072817Y18069174D01*
X-3168817Y18190019D01*
X-2775834Y18229556D01*
X-2228074Y18270043D01*
X-1653984Y18295294D01*
X-1066481Y18305274D01*
X-478481Y18299946D01*
G37*
X-478481Y18299946D02*
X97097Y18279275D01*
X647337Y18243225D01*
X695500Y18239198D01*
X1600905Y18141120D01*
X2496515Y18002390D01*
X3381125Y17823618D01*
X4253535Y17605412D01*
X5112541Y17348383D01*
X5956942Y17053141D01*
X6785535Y16720296D01*
X7597118Y16350456D01*
X8390489Y15944233D01*
X9164445Y15502236D01*
X9917785Y15025074D01*
X10649305Y14513358D01*
X11357805Y13967696D01*
X12042081Y13388700D01*
X12700931Y12776979D01*
X13333153Y12133142D01*
X13838379Y11573000D01*
X14412285Y10879623D01*
X14951323Y10163024D01*
X15454894Y9424419D01*
X15922405Y8665023D01*
X16353257Y7886053D01*
X16746855Y7088725D01*
X17102602Y6274254D01*
X17419904Y5443857D01*
X17698162Y4598750D01*
X17936782Y3740149D01*
X18135167Y2869269D01*
X18155563Y2767435D01*
X18306588Y1893606D01*
X18416263Y1012959D01*
X18484641Y127497D01*
X18511776Y-760775D01*
X18497721Y-1649852D01*
X18442531Y-2537732D01*
X18346258Y-3422410D01*
X18208955Y-4301883D01*
X18030678Y-5174145D01*
X17932360Y-5582583D01*
X17692965Y-6444532D01*
X17413954Y-7291895D01*
X17095753Y-8123831D01*
X16738787Y-8939500D01*
X16343480Y-9738060D01*
X15910258Y-10518671D01*
X15439545Y-11280493D01*
X14931766Y-12022683D01*
X14387346Y-12744403D01*
X14189117Y-12990916D01*
X13934120Y-13294270D01*
X13655017Y-13610766D01*
X13359276Y-13932623D01*
X13054363Y-14252059D01*
X12747744Y-14561292D01*
X12446887Y-14852540D01*
X12159258Y-15118023D01*
X12083166Y-15185748D01*
X11376705Y-15782180D01*
X10652719Y-16340221D01*
X9910454Y-16860352D01*
X9149151Y-17343052D01*
X8368054Y-17788802D01*
X7566407Y-18198082D01*
X6759750Y-18564416D01*
X5933546Y-18895682D01*
X5096751Y-19187675D01*
X4247644Y-19440816D01*
X3384505Y-19655528D01*
X2505612Y-19832236D01*
X1609247Y-19971360D01*
X693689Y-20073324D01*
X579083Y-20083369D01*
X455420Y-20091828D01*
X295652Y-20099539D01*
X106005Y-20106437D01*
X-107299Y-20112454D01*
X-338036Y-20117524D01*
X-579982Y-20121579D01*
X-826912Y-20124552D01*
X-1072604Y-20126378D01*
X-1310833Y-20126988D01*
X-1535376Y-20126316D01*
X-1740009Y-20124295D01*
X-1918508Y-20120858D01*
X-2064649Y-20115938D01*
X-2130250Y-20112497D01*
X-3062288Y-20034005D01*
X-3979840Y-19915736D01*
X-4882929Y-19757683D01*
X-5771575Y-19559839D01*
X-6645800Y-19322197D01*
X-7505627Y-19044752D01*
X-8351077Y-18727494D01*
X-9182171Y-18370419D01*
X-9998932Y-17973518D01*
X-10801381Y-17536785D01*
X-11459066Y-17142474D01*
X-12041103Y-16763312D01*
X-12613026Y-16359517D01*
X-13181188Y-15926353D01*
X-13751942Y-15459085D01*
X-13983584Y-15260533D01*
X-14084613Y-15170261D01*
X-14209636Y-15054408D01*
X-14353487Y-14918088D01*
X-14511001Y-14766409D01*
X-14677012Y-14604484D01*
X-14846356Y-14437422D01*
X-15013867Y-14270335D01*
X-15174380Y-14108334D01*
X-15322730Y-13956529D01*
X-15453752Y-13820032D01*
X-15562280Y-13703953D01*
X-15610111Y-13651114D01*
X-16205123Y-12952319D01*
X-16762537Y-12234175D01*
X-17282216Y-11496967D01*
X-17764023Y-10740981D01*
X-18207822Y-9966501D01*
X-18613474Y-9173814D01*
X-18980843Y-8363204D01*
X-19309792Y-7534957D01*
X-19600183Y-6689358D01*
X-19851880Y-5826693D01*
X-20064745Y-4947247D01*
X-20238642Y-4051306D01*
X-20248161Y-3995083D01*
X-20354135Y-3262332D01*
X-20430590Y-2506461D01*
X-20477266Y-1734949D01*
X-20493902Y-955273D01*
X-20488340Y-637566D01*
X-18825649Y-637566D01*
X-18818004Y-1412750D01*
X-18771369Y-2267996D01*
X-18683292Y-3116252D01*
X-18554271Y-3956288D01*
X-18384804Y-4786877D01*
X-18175387Y-5606793D01*
X-17926520Y-6414807D01*
X-17638698Y-7209692D01*
X-17312421Y-7990220D01*
X-16948184Y-8755165D01*
X-16546487Y-9503298D01*
X-16107825Y-10233391D01*
X-15632698Y-10944218D01*
X-15121602Y-11634551D01*
X-14575035Y-12303163D01*
X-14258002Y-12662833D01*
X-13997052Y-12942513D01*
X-13708543Y-13236378D01*
X-13400976Y-13536436D01*
X-13082849Y-13834692D01*
X-12762663Y-14123154D01*
X-12448918Y-14393828D01*
X-12195000Y-14602860D01*
X-11503985Y-15130690D01*
X-10790304Y-15623081D01*
X-10055279Y-16079476D01*
X-9300231Y-16499320D01*
X-8526481Y-16882055D01*
X-7735350Y-17227124D01*
X-6928159Y-17533971D01*
X-6106229Y-17802040D01*
X-5270882Y-18030773D01*
X-4423439Y-18219614D01*
X-3565220Y-18368006D01*
X-3114500Y-18429076D01*
X-2958181Y-18447498D01*
X-2792376Y-18465719D01*
X-2630396Y-18482364D01*
X-2485552Y-18496059D01*
X-2384250Y-18504473D01*
X-2269768Y-18513117D01*
X-2164317Y-18521255D01*
X-2078170Y-18528082D01*
X-2021599Y-18532793D01*
X-2013834Y-18533495D01*
X-1952221Y-18539213D01*
X-1904371Y-18543627D01*
X-1902709Y-18543779D01*
X-1897190Y-18542673D01*
X-1892246Y-18536825D01*
X-1887847Y-18524037D01*
X-1883960Y-18502111D01*
X-1880554Y-18468847D01*
X-1877597Y-18422046D01*
X-1875058Y-18359512D01*
X-1872906Y-18279043D01*
X-1871107Y-18178443D01*
X-1869632Y-18055513D01*
X-1868448Y-17908053D01*
X-1867524Y-17733865D01*
X-1866828Y-17530751D01*
X-1866329Y-17296512D01*
X-1865995Y-17028950D01*
X-1865794Y-16725865D01*
X-1865696Y-16385059D01*
X-1865667Y-16004334D01*
X-1865667Y-13382500D01*
X-405167Y-13382500D01*
X-405167Y-18570607D01*
X-167042Y-18557751D01*
X-53184Y-18551325D01*
X86135Y-18543044D01*
X234143Y-18533923D01*
X374065Y-18524982D01*
X388583Y-18524031D01*
X1237912Y-18447187D01*
X2082174Y-18329054D01*
X2919603Y-18170409D01*
X3748437Y-17972031D01*
X4566910Y-17734699D01*
X5373258Y-17459190D01*
X6165717Y-17146284D01*
X6942522Y-16796757D01*
X7701910Y-16411390D01*
X8442116Y-15990960D01*
X9161376Y-15536246D01*
X9857926Y-15048026D01*
X10530000Y-14527078D01*
X11175836Y-13974180D01*
X11603435Y-13576200D01*
X12224961Y-12950019D01*
X12808895Y-12304632D01*
X13355740Y-11639296D01*
X13866000Y-10953265D01*
X14340180Y-10245793D01*
X14778784Y-9516137D01*
X15182316Y-8763550D01*
X15551280Y-7987288D01*
X15829884Y-7328833D01*
X16122873Y-6540874D01*
X16376273Y-5740086D01*
X16590088Y-4928344D01*
X16764324Y-4107527D01*
X16898986Y-3279513D01*
X16994079Y-2446179D01*
X17049609Y-1609404D01*
X17065581Y-771065D01*
X17042001Y66960D01*
X16978873Y902794D01*
X16876202Y1734558D01*
X16733995Y2560375D01*
X16552257Y3378367D01*
X16330991Y4186656D01*
X16070205Y4983365D01*
X15793203Y5709834D01*
X15447664Y6501094D01*
X15066386Y7270605D01*
X14650486Y8017445D01*
X14201083Y8740691D01*
X13719292Y9439422D01*
X13206231Y10112717D01*
X12663016Y10759653D01*
X12090766Y11379309D01*
X11490597Y11970762D01*
X10863625Y12533092D01*
X10210969Y13065376D01*
X9533745Y13566692D01*
X8833069Y14036119D01*
X8110060Y14472734D01*
X7365834Y14875617D01*
X6601508Y15243845D01*
X5818199Y15576496D01*
X5017024Y15872648D01*
X4199101Y16131381D01*
X3365546Y16351771D01*
X2727500Y16492009D01*
X1923985Y16635657D01*
X1124007Y16742483D01*
X315272Y16814007D01*
X-40042Y16834374D01*
X-341667Y16848927D01*
X-341667Y8884834D01*
X6135333Y8884834D01*
X6656171Y8884778D01*
X7165981Y8884615D01*
X7663145Y8884348D01*
X8146040Y8883981D01*
X8613049Y8883519D01*
X9062550Y8882967D01*
X9492924Y8882328D01*
X9902551Y8881606D01*
X10289810Y8880807D01*
X10653082Y8879934D01*
X10990747Y8878992D01*
X11301185Y8877984D01*
X11582775Y8876916D01*
X11833898Y8875792D01*
X12052934Y8874615D01*
X12238263Y8873390D01*
X12388265Y8872122D01*
X12501320Y8870815D01*
X12575808Y8869473D01*
X12610108Y8868100D01*
X12612333Y8867648D01*
X12602904Y8847898D01*
X12574974Y8791395D01*
X12529075Y8699200D01*
X12465740Y8572372D01*
X12385500Y8411971D01*
X12288889Y8219058D01*
X12176440Y7994693D01*
X12048684Y7739935D01*
X11906154Y7455844D01*
X11749384Y7143481D01*
X11578905Y6803906D01*
X11395250Y6438179D01*
X11198952Y6047360D01*
X10990543Y5632508D01*
X10770555Y5194685D01*
X10539523Y4734949D01*
X10297977Y4254362D01*
X10046451Y3753983D01*
X9785477Y3234871D01*
X9515588Y2698088D01*
X9237316Y2144694D01*
X8951194Y1575747D01*
X8657754Y992309D01*
X8357529Y395440D01*
X8051052Y-213801D01*
X7738856Y-834354D01*
X7421472Y-1465158D01*
X7164938Y-1974977D01*
X1717544Y-12800416D01*
X5857897Y-12811000D01*
X9998250Y-12821583D01*
X10004156Y-13102041D01*
X10010062Y-13382500D01*
X-405167Y-13382500D01*
X-1865667Y-13382500D01*
X-12279667Y-13382500D01*
X-12279667Y-12811000D01*
X-8088667Y-12811000D01*
X-7670744Y-12810931D01*
X-7264242Y-12810731D01*
X-6871175Y-12810405D01*
X-6493557Y-12809960D01*
X-6133403Y-12809403D01*
X-5792725Y-12808740D01*
X-5473538Y-12807978D01*
X-5177856Y-12807123D01*
X-4907692Y-12806183D01*
X-4665061Y-12805163D01*
X-4451976Y-12804070D01*
X-4270452Y-12802911D01*
X-4122502Y-12801693D01*
X-4010140Y-12800422D01*
X-3935380Y-12799104D01*
X-3900236Y-12797747D01*
X-3897667Y-12797265D01*
X-3907084Y-12777713D01*
X-3934978Y-12721398D01*
X-3980819Y-12629378D01*
X-4044073Y-12502716D01*
X-4124208Y-12342470D01*
X-4220693Y-12149703D01*
X-4332995Y-11925474D01*
X-4460582Y-11670845D01*
X-4602921Y-11386875D01*
X-4759481Y-11074625D01*
X-4929730Y-10735156D01*
X-5113134Y-10369529D01*
X-5309162Y-9978803D01*
X-5517282Y-9564040D01*
X-5736962Y-9126300D01*
X-5967668Y-8666644D01*
X-6208870Y-8186132D01*
X-6460035Y-7685824D01*
X-6720630Y-7166782D01*
X-6990124Y-6630066D01*
X-7267984Y-6076736D01*
X-7553678Y-5507853D01*
X-7846674Y-4924478D01*
X-8146440Y-4327671D01*
X-8452443Y-3718493D01*
X-8764152Y-3098003D01*
X-9081033Y-2467264D01*
X-9332209Y-1967344D01*
X-9652799Y-1329277D01*
X-9968656Y-700617D01*
X-10279247Y-82426D01*
X-10584038Y524236D01*
X-10882497Y1118307D01*
X-11174090Y1698726D01*
X-11458286Y2264432D01*
X-11734549Y2814364D01*
X-12002349Y3347460D01*
X-12261151Y3862659D01*
X-12510423Y4358901D01*
X-12749632Y4835123D01*
X-12978244Y5290265D01*
X-13195727Y5723266D01*
X-13401548Y6133064D01*
X-13595174Y6518598D01*
X-13776071Y6878808D01*
X-13943707Y7212631D01*
X-14097549Y7519006D01*
X-14237063Y7796874D01*
X-14361718Y8045171D01*
X-14470979Y8262837D01*
X-14481859Y8284517D01*
X-9887834Y8284517D01*
X-9878226Y8265279D01*
X-9849998Y8210190D01*
X-9804040Y8120971D01*
X-9741242Y7999341D01*
X-9662496Y7847018D01*
X-9568692Y7665722D01*
X-9460721Y7457171D01*
X-9339473Y7223085D01*
X-9205840Y6965183D01*
X-9060712Y6685184D01*
X-8904980Y6384806D01*
X-8739535Y6065770D01*
X-8565266Y5729794D01*
X-8383066Y5378597D01*
X-8193825Y5013898D01*
X-7998434Y4637416D01*
X-7797783Y4250871D01*
X-7790266Y4236392D01*
X-5692698Y195917D01*
X-5703805Y-2571625D01*
X-5714912Y-5339166D01*
X-3074851Y-5339166D01*
X-2073384Y-7327625D01*
X-1071917Y-9316083D01*
X-77136Y-7327625D01*
X917645Y-5339166D01*
X2198281Y-5339169D01*
X3478916Y-5339173D01*
X3464960Y40901D01*
X5604480Y4155544D01*
X5807472Y4545981D01*
X6005239Y4926464D01*
X6196896Y5295288D01*
X6381560Y5650749D01*
X6558346Y5991143D01*
X6726371Y6314765D01*
X6884751Y6619912D01*
X7032602Y6904878D01*
X7169040Y7167961D01*
X7293182Y7407454D01*
X7404144Y7621654D01*
X7501041Y7808858D01*
X7582991Y7967359D01*
X7649108Y8095455D01*
X7698510Y8191441D01*
X7730312Y8253612D01*
X7743631Y8280264D01*
X7744000Y8281177D01*
X7723064Y8281936D01*
X7661184Y8282681D01*
X7559748Y8283411D01*
X7420144Y8284124D01*
X7243761Y8284818D01*
X7031988Y8285492D01*
X6786212Y8286144D01*
X6507823Y8286772D01*
X6198209Y8287374D01*
X5858759Y8287950D01*
X5490861Y8288496D01*
X5095904Y8289011D01*
X4675276Y8289494D01*
X4230366Y8289942D01*
X3762563Y8290355D01*
X3273254Y8290730D01*
X2763829Y8291066D01*
X2235677Y8291360D01*
X1690185Y8291611D01*
X1128742Y8291818D01*
X552737Y8291979D01*
X-36442Y8292091D01*
X-637405Y8292154D01*
X-1071917Y8292167D01*
X-1680429Y8292149D01*
X-2278145Y8292095D01*
X-2863676Y8292007D01*
X-3435635Y8291886D01*
X-3992631Y8291733D01*
X-4533278Y8291549D01*
X-5056185Y8291336D01*
X-5559966Y8291095D01*
X-6043230Y8290826D01*
X-6504590Y8290531D01*
X-6942658Y8290212D01*
X-7356043Y8289869D01*
X-7743359Y8289504D01*
X-8103216Y8289118D01*
X-8434225Y8288712D01*
X-8734999Y8288288D01*
X-9004149Y8287846D01*
X-9240286Y8287387D01*
X-9442021Y8286914D01*
X-9607966Y8286427D01*
X-9736733Y8285927D01*
X-9826933Y8285416D01*
X-9877177Y8284894D01*
X-9887834Y8284517D01*
X-14481859Y8284517D01*
X-14564314Y8448812D01*
X-14641189Y8602033D01*
X-14701073Y8721439D01*
X-14743431Y8805970D01*
X-14767731Y8854564D01*
X-14773806Y8866838D01*
X-14753484Y8868289D01*
X-14692452Y8869710D01*
X-14592332Y8871095D01*
X-14454746Y8872441D01*
X-14281318Y8873741D01*
X-14073671Y8874993D01*
X-13833426Y8876192D01*
X-13562207Y8877332D01*
X-13261636Y8878409D01*
X-12933336Y8879420D01*
X-12578930Y8880358D01*
X-12200040Y8881221D01*
X-11798289Y8882002D01*
X-11375301Y8882699D01*
X-10932696Y8883305D01*
X-10472099Y8883817D01*
X-9995133Y8884230D01*
X-9503418Y8884539D01*
X-8998579Y8884741D01*
X-8482238Y8884830D01*
X-8344431Y8884834D01*
X-1908000Y8884834D01*
X-1908000Y16822334D01*
X-1976792Y16822213D01*
X-2031401Y16820043D01*
X-2120346Y16814118D01*
X-2235863Y16805132D01*
X-2370189Y16793782D01*
X-2515562Y16780762D01*
X-2664217Y16766767D01*
X-2808392Y16752492D01*
X-2940323Y16738633D01*
X-3051000Y16726034D01*
X-3917771Y16600731D01*
X-4773542Y16434846D01*
X-5617124Y16228948D01*
X-6447330Y15983602D01*
X-7262972Y15699375D01*
X-8062862Y15376834D01*
X-8845811Y15016544D01*
X-9610631Y14619074D01*
X-10356135Y14184988D01*
X-11081134Y13714855D01*
X-11784439Y13209239D01*
X-12464864Y12668709D01*
X-13121220Y12093830D01*
X-13484138Y11750976D01*
X-14083653Y11139813D01*
X-14651858Y10501349D01*
X-15187826Y9837186D01*
X-15690628Y9148926D01*
X-16159339Y8438174D01*
X-16593031Y7706532D01*
X-16990777Y6955604D01*
X-17351650Y6186992D01*
X-17674723Y5402299D01*
X-17959068Y4603128D01*
X-18203759Y3791082D01*
X-18300198Y3423834D01*
X-18483501Y2615851D01*
X-18627203Y1810340D01*
X-18731798Y1002680D01*
X-18797782Y188251D01*
X-18825649Y-637566D01*
X-20488340Y-637566D01*
X-20480238Y-174909D01*
X-20436011Y598665D01*
X-20416508Y830917D01*
X-20315628Y1714053D01*
X-20173779Y2588096D01*
X-19991584Y3451848D01*
X-19769666Y4304114D01*
X-19508647Y5143695D01*
X-19209149Y5969397D01*
X-18871794Y6780021D01*
X-18497205Y7574373D01*
X-18086005Y8351254D01*
X-17638814Y9109468D01*
X-17156256Y9847819D01*
X-16638952Y10565110D01*
X-16087526Y11260144D01*
X-15502599Y11931725D01*
X-14884794Y12578656D01*
X-14234733Y13199740D01*
X-13771401Y13609430D01*
X-13070384Y14182304D01*
X-12345913Y14720255D01*
X-11599179Y15222785D01*
X-10831370Y15689393D01*
X-10043673Y16119581D01*
X-9237279Y16512850D01*
X-8413375Y16868699D01*
X-7573150Y17186629D01*
X-6717794Y17466141D01*
X-5848493Y17706736D01*
X-4966438Y17907913D01*
X-4072817Y18069174D01*
X-3168817Y18190019D01*
X-2775834Y18229556D01*
X-2228074Y18270043D01*
X-1653984Y18295294D01*
X-1066481Y18305274D01*
X-478481Y18299946D01*
G36*
X6264854Y-7344246D02*
G01*
X6321983Y-7372418D01*
X6411268Y-7418166D01*
X6530198Y-7480155D01*
X6676263Y-7557054D01*
X6846950Y-7647527D01*
X7039748Y-7750240D01*
X7252147Y-7863860D01*
X7481633Y-7987054D01*
X7725698Y-8118486D01*
X7981828Y-8256824D01*
X8177916Y-8362996D01*
X10082916Y-9395547D01*
X10326122Y-8912523D01*
X10392463Y-8781709D01*
X10452896Y-8664341D01*
X10504759Y-8565446D01*
X10545390Y-8490047D01*
X10572127Y-8443171D01*
X10582001Y-8429500D01*
X10596111Y-8446930D01*
X10629889Y-8496785D01*
X10681078Y-8575411D01*
X10747422Y-8679156D01*
X10826665Y-8804366D01*
X10916550Y-8947387D01*
X11014822Y-9104566D01*
X11119223Y-9272250D01*
X11227498Y-9446785D01*
X11337390Y-9624519D01*
X11446643Y-9801798D01*
X11553000Y-9974968D01*
X11654206Y-10140376D01*
X11748004Y-10294369D01*
X11832138Y-10433293D01*
X11904351Y-10553496D01*
X11962387Y-10651323D01*
X12003990Y-10723122D01*
X12026904Y-10765239D01*
X12030637Y-10775084D01*
X12007909Y-10777786D01*
X11947244Y-10781219D01*
X11853030Y-10785268D01*
X11729654Y-10789815D01*
X11581504Y-10794744D01*
X11412969Y-10799937D01*
X11228435Y-10805279D01*
X11032291Y-10810653D01*
X10828925Y-10815941D01*
X10622723Y-10821028D01*
X10418075Y-10825796D01*
X10219367Y-10830129D01*
X10030987Y-10833909D01*
X9857324Y-10837021D01*
X9702765Y-10839348D01*
X9571698Y-10840773D01*
X9556777Y-10840885D01*
X9455888Y-10841059D01*
X9390528Y-10839137D01*
X9353905Y-10834004D01*
X9339225Y-10824544D01*
X9339695Y-10809639D01*
X9341181Y-10805458D01*
X9355099Y-10776988D01*
X9386465Y-10717151D01*
X9432230Y-10631620D01*
X9489346Y-10526070D01*
X9554765Y-10406174D01*
X9597445Y-10328417D01*
X9665491Y-10204049D01*
X9726142Y-10091903D01*
X9776565Y-9997321D01*
X9813930Y-9925647D01*
X9835403Y-9882223D01*
X9839500Y-9871719D01*
X9821122Y-9859855D01*
X9767645Y-9829820D01*
X9681552Y-9782927D01*
X9565325Y-9720490D01*
X9421448Y-9643823D01*
X9252404Y-9554239D01*
X9060675Y-9453052D01*
X8848745Y-9341576D01*
X8619098Y-9221124D01*
X8374215Y-9093009D01*
X8116581Y-8958546D01*
X7910515Y-8851218D01*
X7643985Y-8712459D01*
X7387731Y-8578924D01*
X7144289Y-8451944D01*
X6916198Y-8332848D01*
X6705995Y-8222964D01*
X6516220Y-8123624D01*
X6349409Y-8036155D01*
X6208101Y-7961888D01*
X6094834Y-7902151D01*
X6012145Y-7858274D01*
X5962574Y-7831586D01*
X5948644Y-7823642D01*
X5937743Y-7809534D01*
X5938964Y-7786406D01*
X5955036Y-7748238D01*
X5988689Y-7689011D01*
X6042653Y-7602705D01*
X6063814Y-7569695D01*
X6121704Y-7482861D01*
X6173949Y-7410284D01*
X6215278Y-7358892D01*
X6240420Y-7335613D01*
X6242393Y-7334985D01*
X6264854Y-7344246D01*
G37*
X6264854Y-7344246D02*
X6321983Y-7372418D01*
X6411268Y-7418166D01*
X6530198Y-7480155D01*
X6676263Y-7557054D01*
X6846950Y-7647527D01*
X7039748Y-7750240D01*
X7252147Y-7863860D01*
X7481633Y-7987054D01*
X7725698Y-8118486D01*
X7981828Y-8256824D01*
X8177916Y-8362996D01*
X10082916Y-9395547D01*
X10326122Y-8912523D01*
X10392463Y-8781709D01*
X10452896Y-8664341D01*
X10504759Y-8565446D01*
X10545390Y-8490047D01*
X10572127Y-8443171D01*
X10582001Y-8429500D01*
X10596111Y-8446930D01*
X10629889Y-8496785D01*
X10681078Y-8575411D01*
X10747422Y-8679156D01*
X10826665Y-8804366D01*
X10916550Y-8947387D01*
X11014822Y-9104566D01*
X11119223Y-9272250D01*
X11227498Y-9446785D01*
X11337390Y-9624519D01*
X11446643Y-9801798D01*
X11553000Y-9974968D01*
X11654206Y-10140376D01*
X11748004Y-10294369D01*
X11832138Y-10433293D01*
X11904351Y-10553496D01*
X11962387Y-10651323D01*
X12003990Y-10723122D01*
X12026904Y-10765239D01*
X12030637Y-10775084D01*
X12007909Y-10777786D01*
X11947244Y-10781219D01*
X11853030Y-10785268D01*
X11729654Y-10789815D01*
X11581504Y-10794744D01*
X11412969Y-10799937D01*
X11228435Y-10805279D01*
X11032291Y-10810653D01*
X10828925Y-10815941D01*
X10622723Y-10821028D01*
X10418075Y-10825796D01*
X10219367Y-10830129D01*
X10030987Y-10833909D01*
X9857324Y-10837021D01*
X9702765Y-10839348D01*
X9571698Y-10840773D01*
X9556777Y-10840885D01*
X9455888Y-10841059D01*
X9390528Y-10839137D01*
X9353905Y-10834004D01*
X9339225Y-10824544D01*
X9339695Y-10809639D01*
X9341181Y-10805458D01*
X9355099Y-10776988D01*
X9386465Y-10717151D01*
X9432230Y-10631620D01*
X9489346Y-10526070D01*
X9554765Y-10406174D01*
X9597445Y-10328417D01*
X9665491Y-10204049D01*
X9726142Y-10091903D01*
X9776565Y-9997321D01*
X9813930Y-9925647D01*
X9835403Y-9882223D01*
X9839500Y-9871719D01*
X9821122Y-9859855D01*
X9767645Y-9829820D01*
X9681552Y-9782927D01*
X9565325Y-9720490D01*
X9421448Y-9643823D01*
X9252404Y-9554239D01*
X9060675Y-9453052D01*
X8848745Y-9341576D01*
X8619098Y-9221124D01*
X8374215Y-9093009D01*
X8116581Y-8958546D01*
X7910515Y-8851218D01*
X7643985Y-8712459D01*
X7387731Y-8578924D01*
X7144289Y-8451944D01*
X6916198Y-8332848D01*
X6705995Y-8222964D01*
X6516220Y-8123624D01*
X6349409Y-8036155D01*
X6208101Y-7961888D01*
X6094834Y-7902151D01*
X6012145Y-7858274D01*
X5962574Y-7831586D01*
X5948644Y-7823642D01*
X5937743Y-7809534D01*
X5938964Y-7786406D01*
X5955036Y-7748238D01*
X5988689Y-7689011D01*
X6042653Y-7602705D01*
X6063814Y-7569695D01*
X6121704Y-7482861D01*
X6173949Y-7410284D01*
X6215278Y-7358892D01*
X6240420Y-7335613D01*
X6242393Y-7334985D01*
X6264854Y-7344246D01*
G36*
X8033107Y-4058770D02*
G01*
X8089377Y-4087367D01*
X8177832Y-4133489D01*
X8295962Y-4195795D01*
X8441258Y-4272947D01*
X8611212Y-4363603D01*
X8803316Y-4466425D01*
X9015061Y-4580072D01*
X9243939Y-4703205D01*
X9487441Y-4834483D01*
X9743058Y-4972567D01*
X9931595Y-5074583D01*
X10194272Y-5216701D01*
X10446572Y-5352991D01*
X10685992Y-5482111D01*
X10910029Y-5602721D01*
X11116178Y-5713481D01*
X11301936Y-5813048D01*
X11464799Y-5900083D01*
X11602262Y-5973245D01*
X11711822Y-6031192D01*
X11790976Y-6072585D01*
X11837218Y-6096082D01*
X11848715Y-6101166D01*
X11863598Y-6083019D01*
X11894392Y-6031964D01*
X11938324Y-5953080D01*
X11992619Y-5851444D01*
X12054504Y-5732136D01*
X12108814Y-5624981D01*
X12174376Y-5495133D01*
X12233900Y-5378790D01*
X12284734Y-5281011D01*
X12324225Y-5206858D01*
X12349720Y-5161390D01*
X12358333Y-5149060D01*
X12372039Y-5166562D01*
X12405444Y-5216481D01*
X12456294Y-5295163D01*
X12522335Y-5398957D01*
X12601311Y-5524211D01*
X12690970Y-5667273D01*
X12789056Y-5824491D01*
X12893315Y-5992213D01*
X13001494Y-6166787D01*
X13111338Y-6344561D01*
X13220592Y-6521883D01*
X13327003Y-6695101D01*
X13428316Y-6860563D01*
X13522276Y-7014617D01*
X13606631Y-7153611D01*
X13679124Y-7273894D01*
X13737503Y-7371812D01*
X13779513Y-7443715D01*
X13802899Y-7485950D01*
X13806977Y-7495911D01*
X13784265Y-7498601D01*
X13723674Y-7502014D01*
X13629649Y-7506032D01*
X13506637Y-7510537D01*
X13359084Y-7515413D01*
X13191434Y-7520541D01*
X13008134Y-7525806D01*
X12813630Y-7531089D01*
X12612367Y-7536273D01*
X12408791Y-7541240D01*
X12207349Y-7545875D01*
X12012486Y-7550059D01*
X11828647Y-7553674D01*
X11660279Y-7556605D01*
X11511827Y-7558733D01*
X11387737Y-7559941D01*
X11377648Y-7560002D01*
X11084880Y-7561666D01*
X11126107Y-7492875D01*
X11157606Y-7438372D01*
X11201433Y-7359865D01*
X11254334Y-7263447D01*
X11313059Y-7155212D01*
X11374356Y-7041252D01*
X11434974Y-6927662D01*
X11491662Y-6820535D01*
X11541169Y-6725963D01*
X11580242Y-6650042D01*
X11605631Y-6598863D01*
X11614084Y-6578521D01*
X11614032Y-6578441D01*
X11594675Y-6568037D01*
X11540231Y-6539390D01*
X11453168Y-6493791D01*
X11335958Y-6432527D01*
X11191073Y-6356887D01*
X11020981Y-6268160D01*
X10828156Y-6167634D01*
X10615066Y-6056597D01*
X10384182Y-5936338D01*
X10137976Y-5808145D01*
X9878919Y-5673307D01*
X9643403Y-5550761D01*
X7679889Y-4529231D01*
X7717236Y-4471946D01*
X7744651Y-4429532D01*
X7787796Y-4362376D01*
X7839641Y-4281431D01*
X7871000Y-4232368D01*
X7921928Y-4156009D01*
X7966625Y-4095159D01*
X7999207Y-4057495D01*
X8011528Y-4049037D01*
X8033107Y-4058770D01*
G37*
X8033107Y-4058770D02*
X8089377Y-4087367D01*
X8177832Y-4133489D01*
X8295962Y-4195795D01*
X8441258Y-4272947D01*
X8611212Y-4363603D01*
X8803316Y-4466425D01*
X9015061Y-4580072D01*
X9243939Y-4703205D01*
X9487441Y-4834483D01*
X9743058Y-4972567D01*
X9931595Y-5074583D01*
X10194272Y-5216701D01*
X10446572Y-5352991D01*
X10685992Y-5482111D01*
X10910029Y-5602721D01*
X11116178Y-5713481D01*
X11301936Y-5813048D01*
X11464799Y-5900083D01*
X11602262Y-5973245D01*
X11711822Y-6031192D01*
X11790976Y-6072585D01*
X11837218Y-6096082D01*
X11848715Y-6101166D01*
X11863598Y-6083019D01*
X11894392Y-6031964D01*
X11938324Y-5953080D01*
X11992619Y-5851444D01*
X12054504Y-5732136D01*
X12108814Y-5624981D01*
X12174376Y-5495133D01*
X12233900Y-5378790D01*
X12284734Y-5281011D01*
X12324225Y-5206858D01*
X12349720Y-5161390D01*
X12358333Y-5149060D01*
X12372039Y-5166562D01*
X12405444Y-5216481D01*
X12456294Y-5295163D01*
X12522335Y-5398957D01*
X12601311Y-5524211D01*
X12690970Y-5667273D01*
X12789056Y-5824491D01*
X12893315Y-5992213D01*
X13001494Y-6166787D01*
X13111338Y-6344561D01*
X13220592Y-6521883D01*
X13327003Y-6695101D01*
X13428316Y-6860563D01*
X13522276Y-7014617D01*
X13606631Y-7153611D01*
X13679124Y-7273894D01*
X13737503Y-7371812D01*
X13779513Y-7443715D01*
X13802899Y-7485950D01*
X13806977Y-7495911D01*
X13784265Y-7498601D01*
X13723674Y-7502014D01*
X13629649Y-7506032D01*
X13506637Y-7510537D01*
X13359084Y-7515413D01*
X13191434Y-7520541D01*
X13008134Y-7525806D01*
X12813630Y-7531089D01*
X12612367Y-7536273D01*
X12408791Y-7541240D01*
X12207349Y-7545875D01*
X12012486Y-7550059D01*
X11828647Y-7553674D01*
X11660279Y-7556605D01*
X11511827Y-7558733D01*
X11387737Y-7559941D01*
X11377648Y-7560002D01*
X11084880Y-7561666D01*
X11126107Y-7492875D01*
X11157606Y-7438372D01*
X11201433Y-7359865D01*
X11254334Y-7263447D01*
X11313059Y-7155212D01*
X11374356Y-7041252D01*
X11434974Y-6927662D01*
X11491662Y-6820535D01*
X11541169Y-6725963D01*
X11580242Y-6650042D01*
X11605631Y-6598863D01*
X11614084Y-6578521D01*
X11614032Y-6578441D01*
X11594675Y-6568037D01*
X11540231Y-6539390D01*
X11453168Y-6493791D01*
X11335958Y-6432527D01*
X11191073Y-6356887D01*
X11020981Y-6268160D01*
X10828156Y-6167634D01*
X10615066Y-6056597D01*
X10384182Y-5936338D01*
X10137976Y-5808145D01*
X9878919Y-5673307D01*
X9643403Y-5550761D01*
X7679889Y-4529231D01*
X7717236Y-4471946D01*
X7744651Y-4429532D01*
X7787796Y-4362376D01*
X7839641Y-4281431D01*
X7871000Y-4232368D01*
X7921928Y-4156009D01*
X7966625Y-4095159D01*
X7999207Y-4057495D01*
X8011528Y-4049037D01*
X8033107Y-4058770D01*
G36*
X-3178000Y1582334D02*
G01*
X928333Y1582334D01*
X928333Y7128000D01*
X3235500Y7128000D01*
X3235500Y-5148666D01*
X928333Y-5148666D01*
X928333Y-216833D01*
X-3178000Y-216833D01*
X-3178000Y-5148666D01*
X-5485167Y-5148666D01*
X-5485167Y7128000D01*
X-3178000Y7128000D01*
X-3178000Y1582334D01*
G37*
X-3178000Y1582334D02*
X928333Y1582334D01*
X928333Y7128000D01*
X3235500Y7128000D01*
X3235500Y-5148666D01*
X928333Y-5148666D01*
X928333Y-216833D01*
X-3178000Y-216833D01*
X-3178000Y-5148666D01*
X-5485167Y-5148666D01*
X-5485167Y7128000D01*
X-3178000Y7128000D01*
X-3178000Y1582334D01*
G36*
X4835377Y8106489D02*
G01*
X5054539Y8068882D01*
X5249332Y7999853D01*
X5364390Y7936454D01*
X5497566Y7826414D01*
X5600734Y7690725D01*
X5673557Y7533934D01*
X5715698Y7360590D01*
X5726819Y7175241D01*
X5706581Y6982432D01*
X5654648Y6786714D01*
X5570682Y6592632D01*
X5475857Y6435225D01*
X5387184Y6318445D01*
X5272493Y6185912D01*
X5140198Y6046501D01*
X4998716Y5909082D01*
X4858103Y5783917D01*
X4632957Y5593417D01*
X5246562Y5587806D01*
X5860166Y5582194D01*
X5860166Y4863167D01*
X3658833Y4863167D01*
X3659092Y5185959D01*
X3659351Y5508750D01*
X3854883Y5667437D01*
X3961817Y5758167D01*
X4082138Y5866872D01*
X4209824Y5987490D01*
X4338854Y6113956D01*
X4463207Y6240207D01*
X4576860Y6360183D01*
X4673794Y6467818D01*
X4747986Y6557050D01*
X4776332Y6595245D01*
X4858863Y6725377D01*
X4912374Y6840903D01*
X4940790Y6953808D01*
X4948032Y7076073D01*
X4946697Y7115693D01*
X4939631Y7204008D01*
X4926206Y7265475D01*
X4901887Y7315540D01*
X4878130Y7349230D01*
X4787118Y7435217D01*
X4672188Y7488879D01*
X4536759Y7510213D01*
X4384250Y7499217D01*
X4218078Y7455889D01*
X4041664Y7380226D01*
X3984679Y7349785D01*
X3917225Y7310296D01*
X3865160Y7276530D01*
X3839048Y7255371D01*
X3838431Y7254485D01*
X3808874Y7237145D01*
X3784584Y7233834D01*
X3769349Y7236037D01*
X3758429Y7246660D01*
X3751108Y7271719D01*
X3746670Y7317234D01*
X3744402Y7389222D01*
X3743588Y7493702D01*
X3743500Y7579686D01*
X3743500Y7925539D01*
X3799085Y7950865D01*
X3843507Y7967135D01*
X3916775Y7989862D01*
X4006640Y8015349D01*
X4057669Y8028935D01*
X4334342Y8086699D01*
X4594444Y8112489D01*
X4835377Y8106489D01*
G37*
X4835377Y8106489D02*
X5054539Y8068882D01*
X5249332Y7999853D01*
X5364390Y7936454D01*
X5497566Y7826414D01*
X5600734Y7690725D01*
X5673557Y7533934D01*
X5715698Y7360590D01*
X5726819Y7175241D01*
X5706581Y6982432D01*
X5654648Y6786714D01*
X5570682Y6592632D01*
X5475857Y6435225D01*
X5387184Y6318445D01*
X5272493Y6185912D01*
X5140198Y6046501D01*
X4998716Y5909082D01*
X4858103Y5783917D01*
X4632957Y5593417D01*
X5246562Y5587806D01*
X5860166Y5582194D01*
X5860166Y4863167D01*
X3658833Y4863167D01*
X3659092Y5185959D01*
X3659351Y5508750D01*
X3854883Y5667437D01*
X3961817Y5758167D01*
X4082138Y5866872D01*
X4209824Y5987490D01*
X4338854Y6113956D01*
X4463207Y6240207D01*
X4576860Y6360183D01*
X4673794Y6467818D01*
X4747986Y6557050D01*
X4776332Y6595245D01*
X4858863Y6725377D01*
X4912374Y6840903D01*
X4940790Y6953808D01*
X4948032Y7076073D01*
X4946697Y7115693D01*
X4939631Y7204008D01*
X4926206Y7265475D01*
X4901887Y7315540D01*
X4878130Y7349230D01*
X4787118Y7435217D01*
X4672188Y7488879D01*
X4536759Y7510213D01*
X4384250Y7499217D01*
X4218078Y7455889D01*
X4041664Y7380226D01*
X3984679Y7349785D01*
X3917225Y7310296D01*
X3865160Y7276530D01*
X3839048Y7255371D01*
X3838431Y7254485D01*
X3808874Y7237145D01*
X3784584Y7233834D01*
X3769349Y7236037D01*
X3758429Y7246660D01*
X3751108Y7271719D01*
X3746670Y7317234D01*
X3744402Y7389222D01*
X3743588Y7493702D01*
X3743500Y7579686D01*
X3743500Y7925539D01*
X3799085Y7950865D01*
X3843507Y7967135D01*
X3916775Y7989862D01*
X4006640Y8015349D01*
X4057669Y8028935D01*
X4334342Y8086699D01*
X4594444Y8112489D01*
X4835377Y8106489D01*
M02*
