G04 #@! TF.GenerationSoftware,KiCad,Pcbnew,(5.1.10-1-10_14)*
G04 #@! TF.CreationDate,2021-08-06T16:45:07+03:00*
G04 #@! TF.ProjectId,hhv_coin,6868765f-636f-4696-9e2e-6b696361645f,rev?*
G04 #@! TF.SameCoordinates,Original*
G04 #@! TF.FileFunction,Soldermask,Bot*
G04 #@! TF.FilePolarity,Negative*
%FSLAX46Y46*%
G04 Gerber Fmt 4.6, Leading zero omitted, Abs format (unit mm)*
G04 Created by KiCad (PCBNEW (5.1.10-1-10_14)) date 2021-08-06 16:45:07*
%MOMM*%
%LPD*%
G01*
G04 APERTURE LIST*
%ADD10C,0.150000*%
%ADD11C,0.010000*%
G04 APERTURE END LIST*
D10*
X7271428Y-15152380D02*
X7271428Y-14152380D01*
X7033333Y-14152380D01*
X6890476Y-14200000D01*
X6795238Y-14295238D01*
X6747619Y-14390476D01*
X6700000Y-14580952D01*
X6700000Y-14723809D01*
X6747619Y-14914285D01*
X6795238Y-15009523D01*
X6890476Y-15104761D01*
X7033333Y-15152380D01*
X7271428Y-15152380D01*
X5700000Y-15057142D02*
X5747619Y-15104761D01*
X5890476Y-15152380D01*
X5985714Y-15152380D01*
X6128571Y-15104761D01*
X6223809Y-15009523D01*
X6271428Y-14914285D01*
X6319047Y-14723809D01*
X6319047Y-14580952D01*
X6271428Y-14390476D01*
X6223809Y-14295238D01*
X6128571Y-14200000D01*
X5985714Y-14152380D01*
X5890476Y-14152380D01*
X5747619Y-14200000D01*
X5700000Y-14247619D01*
X4557142Y-14247619D02*
X4509523Y-14200000D01*
X4414285Y-14152380D01*
X4176190Y-14152380D01*
X4080952Y-14200000D01*
X4033333Y-14247619D01*
X3985714Y-14342857D01*
X3985714Y-14438095D01*
X4033333Y-14580952D01*
X4604761Y-15152380D01*
X3985714Y-15152380D01*
X3509523Y-15152380D02*
X3319047Y-15152380D01*
X3223809Y-15104761D01*
X3176190Y-15057142D01*
X3080952Y-14914285D01*
X3033333Y-14723809D01*
X3033333Y-14342857D01*
X3080952Y-14247619D01*
X3128571Y-14200000D01*
X3223809Y-14152380D01*
X3414285Y-14152380D01*
X3509523Y-14200000D01*
X3557142Y-14247619D01*
X3604761Y-14342857D01*
X3604761Y-14580952D01*
X3557142Y-14676190D01*
X3509523Y-14723809D01*
X3414285Y-14771428D01*
X3223809Y-14771428D01*
X3128571Y-14723809D01*
X3080952Y-14676190D01*
X3033333Y-14580952D01*
X-3299999Y-15057142D02*
X-3252380Y-15104761D01*
X-3109523Y-15152380D01*
X-3014285Y-15152380D01*
X-2871428Y-15104761D01*
X-2776190Y-15009523D01*
X-2728571Y-14914285D01*
X-2680952Y-14723809D01*
X-2680952Y-14580952D01*
X-2728571Y-14390476D01*
X-2776190Y-14295238D01*
X-2871428Y-14200000D01*
X-3014285Y-14152380D01*
X-3109523Y-14152380D01*
X-3252380Y-14200000D01*
X-3299999Y-14247619D01*
X-3728571Y-15152380D02*
X-3728571Y-14152380D01*
X-4157142Y-15152380D02*
X-4157142Y-14628571D01*
X-4109523Y-14533333D01*
X-4014285Y-14485714D01*
X-3871428Y-14485714D01*
X-3776190Y-14533333D01*
X-3728571Y-14580952D01*
X-5061904Y-15152380D02*
X-5061904Y-14628571D01*
X-5014285Y-14533333D01*
X-4919047Y-14485714D01*
X-4728571Y-14485714D01*
X-4633333Y-14533333D01*
X-5061904Y-15104761D02*
X-4966666Y-15152380D01*
X-4728571Y-15152380D01*
X-4633333Y-15104761D01*
X-4585714Y-15009523D01*
X-4585714Y-14914285D01*
X-4633333Y-14819047D01*
X-4728571Y-14771428D01*
X-4966666Y-14771428D01*
X-5061904Y-14723809D01*
X-5680952Y-15152380D02*
X-5585714Y-15104761D01*
X-5538095Y-15009523D01*
X-5538095Y-14152380D01*
X-6204761Y-15152380D02*
X-6109523Y-15104761D01*
X-6061904Y-15009523D01*
X-6061904Y-14152380D01*
X-6966666Y-15104761D02*
X-6871428Y-15152380D01*
X-6680952Y-15152380D01*
X-6585714Y-15104761D01*
X-6538095Y-15009523D01*
X-6538095Y-14628571D01*
X-6585714Y-14533333D01*
X-6680952Y-14485714D01*
X-6871428Y-14485714D01*
X-6966666Y-14533333D01*
X-7014285Y-14628571D01*
X-7014285Y-14723809D01*
X-6538095Y-14819047D01*
X-7442857Y-14485714D02*
X-7442857Y-15152380D01*
X-7442857Y-14580952D02*
X-7490476Y-14533333D01*
X-7585714Y-14485714D01*
X-7728571Y-14485714D01*
X-7823809Y-14533333D01*
X-7871428Y-14628571D01*
X-7871428Y-15152380D01*
X-8776190Y-14485714D02*
X-8776190Y-15295238D01*
X-8728571Y-15390476D01*
X-8680952Y-15438095D01*
X-8585714Y-15485714D01*
X-8442857Y-15485714D01*
X-8347619Y-15438095D01*
X-8776190Y-15104761D02*
X-8680952Y-15152380D01*
X-8490476Y-15152380D01*
X-8395238Y-15104761D01*
X-8347619Y-15057142D01*
X-8299999Y-14961904D01*
X-8299999Y-14676190D01*
X-8347619Y-14580952D01*
X-8395238Y-14533333D01*
X-8490476Y-14485714D01*
X-8680952Y-14485714D01*
X-8776190Y-14533333D01*
X-9633333Y-15104761D02*
X-9538095Y-15152380D01*
X-9347619Y-15152380D01*
X-9252380Y-15104761D01*
X-9204761Y-15009523D01*
X-9204761Y-14628571D01*
X-9252380Y-14533333D01*
X-9347619Y-14485714D01*
X-9538095Y-14485714D01*
X-9633333Y-14533333D01*
X-9680952Y-14628571D01*
X-9680952Y-14723809D01*
X-9204761Y-14819047D01*
D11*
G36*
X78329Y18325951D02*
G01*
X988418Y18254777D01*
X1494000Y18197181D01*
X2396727Y18061666D01*
X3287932Y17885654D01*
X4166544Y17669672D01*
X5031493Y17414246D01*
X5881707Y17119901D01*
X6716118Y16787164D01*
X7533654Y16416561D01*
X8333245Y16008617D01*
X9113821Y15563859D01*
X9874311Y15082814D01*
X10613646Y14566006D01*
X11330755Y14013963D01*
X12024567Y13427210D01*
X12694012Y12806273D01*
X12924000Y12579325D01*
X13518828Y11953925D01*
X14088312Y11296828D01*
X14630174Y10611368D01*
X15142137Y9900879D01*
X15621922Y9168695D01*
X16067252Y8418150D01*
X16475850Y7652578D01*
X16845436Y6875312D01*
X16890584Y6773389D01*
X17227591Y5953654D01*
X17525291Y5119374D01*
X17783444Y4272310D01*
X18001808Y3414226D01*
X18180144Y2546881D01*
X18318211Y1672038D01*
X18415768Y791458D01*
X18472575Y-93097D01*
X18488392Y-979865D01*
X18462979Y-1867086D01*
X18396094Y-2752997D01*
X18299756Y-3551149D01*
X18152383Y-4437242D01*
X17964617Y-5311462D01*
X17737001Y-6172710D01*
X17470083Y-7019892D01*
X17164405Y-7851910D01*
X16820514Y-8667666D01*
X16438955Y-9466065D01*
X16020273Y-10246009D01*
X15565012Y-11006401D01*
X15073717Y-11746145D01*
X14546935Y-12464144D01*
X13985209Y-13159300D01*
X13389085Y-13830518D01*
X12980043Y-14256863D01*
X12622907Y-14611367D01*
X12279835Y-14937685D01*
X11942188Y-15243360D01*
X11601325Y-15535936D01*
X11248605Y-15822956D01*
X10875390Y-16111964D01*
X10730913Y-16220510D01*
X9992198Y-16745124D01*
X9232192Y-17233420D01*
X8452082Y-17684956D01*
X7653053Y-18099288D01*
X6836289Y-18475972D01*
X6002976Y-18814567D01*
X5154300Y-19114628D01*
X4291446Y-19375712D01*
X3415598Y-19597377D01*
X2527943Y-19779179D01*
X1629666Y-19920675D01*
X721951Y-20021422D01*
X520333Y-20038134D01*
X153410Y-20062527D01*
X-234440Y-20080706D01*
X-630267Y-20092378D01*
X-1021119Y-20097253D01*
X-1394044Y-20095039D01*
X-1681000Y-20087598D01*
X-2604695Y-20033074D01*
X-3519232Y-19937721D01*
X-4423727Y-19801747D01*
X-5317297Y-19625357D01*
X-6199061Y-19408757D01*
X-7068134Y-19152154D01*
X-7923633Y-18855754D01*
X-8764677Y-18519762D01*
X-9179893Y-18336806D01*
X-9989033Y-17946202D01*
X-10775955Y-17520663D01*
X-11539684Y-17061308D01*
X-12279246Y-16569258D01*
X-12993665Y-16045633D01*
X-13681967Y-15491552D01*
X-14343177Y-14908137D01*
X-14976320Y-14296506D01*
X-15580420Y-13657779D01*
X-16154504Y-12993078D01*
X-16697596Y-12303522D01*
X-17208721Y-11590230D01*
X-17686905Y-10854324D01*
X-18131172Y-10096922D01*
X-18540548Y-9319145D01*
X-18914057Y-8522114D01*
X-19250726Y-7706947D01*
X-19549578Y-6874766D01*
X-19768114Y-6172257D01*
X-19996717Y-5307549D01*
X-20183940Y-4435935D01*
X-20329855Y-3558890D01*
X-20434533Y-2677889D01*
X-20498046Y-1794405D01*
X-20514559Y-1142975D01*
X-19072418Y-1142975D01*
X-19035086Y-2000654D01*
X-18955755Y-2855424D01*
X-18834502Y-3706260D01*
X-18671408Y-4552137D01*
X-18466550Y-5392030D01*
X-18381095Y-5697916D01*
X-18125392Y-6506985D01*
X-17830551Y-7301185D01*
X-17497537Y-8079214D01*
X-17127314Y-8839766D01*
X-16720846Y-9581536D01*
X-16279097Y-10303222D01*
X-15803032Y-11003518D01*
X-15293614Y-11681120D01*
X-14751808Y-12334723D01*
X-14178578Y-12963025D01*
X-13574888Y-13564719D01*
X-12941703Y-14138502D01*
X-12279986Y-14683069D01*
X-11590701Y-15197116D01*
X-11121334Y-15518907D01*
X-10642746Y-15826250D01*
X-10168046Y-16110718D01*
X-9684385Y-16379564D01*
X-9178918Y-16640043D01*
X-8866015Y-16792379D01*
X-8127326Y-17122802D01*
X-7364412Y-17421140D01*
X-6582067Y-17686132D01*
X-5785084Y-17916517D01*
X-4978256Y-18111034D01*
X-4166375Y-18268423D01*
X-3354235Y-18387421D01*
X-2546629Y-18466768D01*
X-2485334Y-18471158D01*
X-2364432Y-18479630D01*
X-2251783Y-18487605D01*
X-2157246Y-18494379D01*
X-2090680Y-18499248D01*
X-2072584Y-18500622D01*
X-2012427Y-18504017D01*
X-1925469Y-18507351D01*
X-1827239Y-18510060D01*
X-1792125Y-18510775D01*
X-1596334Y-18514333D01*
X-1596334Y-13349666D01*
X-157000Y-13349666D01*
X-157000Y-18493166D01*
X-97732Y-18493166D01*
X-54835Y-18491560D01*
X20282Y-18487168D01*
X117646Y-18480629D01*
X227283Y-18472583D01*
X246227Y-18471126D01*
X1120106Y-18382664D01*
X1983849Y-18253684D01*
X2836270Y-18084748D01*
X3676178Y-17876419D01*
X4502385Y-17629259D01*
X5313703Y-17343830D01*
X6108942Y-17020695D01*
X6886915Y-16660415D01*
X7646433Y-16263555D01*
X8386307Y-15830675D01*
X9105348Y-15362339D01*
X9802368Y-14859109D01*
X10476178Y-14321546D01*
X11125590Y-13750214D01*
X11749415Y-13145676D01*
X11958493Y-12929495D01*
X12539930Y-12288075D01*
X13087070Y-11622837D01*
X13599332Y-10935021D01*
X14076136Y-10225865D01*
X14516901Y-9496607D01*
X14921047Y-8748484D01*
X15287992Y-7982735D01*
X15617157Y-7200598D01*
X15907961Y-6403311D01*
X16159823Y-5592112D01*
X16372164Y-4768239D01*
X16544401Y-3932930D01*
X16675955Y-3087424D01*
X16711902Y-2792658D01*
X16734676Y-2586050D01*
X16753636Y-2399099D01*
X16769110Y-2224910D01*
X16781426Y-2056586D01*
X16790913Y-1887230D01*
X16797900Y-1709947D01*
X16802713Y-1517840D01*
X16805683Y-1304013D01*
X16807137Y-1061570D01*
X16807407Y-787250D01*
X16806575Y-496678D01*
X16804249Y-241211D01*
X16800033Y-13637D01*
X16793533Y193258D01*
X16784354Y386688D01*
X16772101Y573866D01*
X16756378Y762006D01*
X16736793Y958321D01*
X16712948Y1170024D01*
X16689817Y1361167D01*
X16564183Y2205158D01*
X16397968Y3038554D01*
X16191870Y3860165D01*
X15946584Y4668799D01*
X15662806Y5463266D01*
X15341233Y6242375D01*
X14982559Y7004934D01*
X14587482Y7749753D01*
X14156697Y8475641D01*
X13690900Y9181406D01*
X13190787Y9865857D01*
X12657054Y10527804D01*
X12090398Y11166055D01*
X11491513Y11779420D01*
X10861097Y12366708D01*
X10199844Y12926726D01*
X9706666Y13311163D01*
X9423360Y13518120D01*
X9111284Y13734930D01*
X8780676Y13954991D01*
X8441770Y14171702D01*
X8104804Y14378464D01*
X7780013Y14568677D01*
X7600583Y14669181D01*
X6847781Y15059440D01*
X6074506Y15414577D01*
X5283738Y15733689D01*
X4478460Y16015877D01*
X3661654Y16260240D01*
X2836300Y16465875D01*
X2005381Y16631884D01*
X1171878Y16757365D01*
X435666Y16833790D01*
X318919Y16843345D01*
X203261Y16852847D01*
X102968Y16861122D01*
X38791Y16866454D01*
X-93500Y16877513D01*
X-93499Y12902882D01*
X-93497Y8928250D01*
X6318239Y8928250D01*
X6836601Y8928202D01*
X7344017Y8928058D01*
X7838853Y8927823D01*
X8319476Y8927500D01*
X8784252Y8927094D01*
X9231548Y8926608D01*
X9659732Y8926046D01*
X10067169Y8925411D01*
X10452226Y8924708D01*
X10813270Y8923941D01*
X11148668Y8923112D01*
X11456787Y8922227D01*
X11735993Y8921288D01*
X11984653Y8920300D01*
X12201133Y8919267D01*
X12383801Y8918191D01*
X12531024Y8917078D01*
X12641166Y8915930D01*
X12712597Y8914752D01*
X12743682Y8913547D01*
X12744940Y8913283D01*
X12736409Y8893660D01*
X12709391Y8837276D01*
X12664417Y8745189D01*
X12602017Y8618460D01*
X12522721Y8458148D01*
X12427060Y8265313D01*
X12315563Y8041015D01*
X12188761Y7786314D01*
X12047184Y7502269D01*
X11891362Y7189940D01*
X11721825Y6850387D01*
X11539103Y6484670D01*
X11343727Y6093849D01*
X11136226Y5678982D01*
X10917132Y5241131D01*
X10686973Y4781355D01*
X10446280Y4300713D01*
X10195584Y3800265D01*
X9935414Y3281072D01*
X9666301Y2744192D01*
X9388774Y2190686D01*
X9103364Y1621614D01*
X8810602Y1038035D01*
X8511016Y441009D01*
X8205138Y-168405D01*
X7893498Y-789145D01*
X7576625Y-1420154D01*
X7318213Y-1934634D01*
X1876519Y-12767583D01*
X6077342Y-12772927D01*
X10278166Y-12778271D01*
X10278166Y-13349666D01*
X-157000Y-13349666D01*
X-1596334Y-13349666D01*
X-12010334Y-13349666D01*
X-12010334Y-12778272D01*
X-7864062Y-12772927D01*
X-3717791Y-12767583D01*
X-9165704Y-1940833D01*
X-9486853Y-1302580D01*
X-9803240Y-673737D01*
X-10114333Y-55364D01*
X-10419599Y551479D01*
X-10718505Y1145733D01*
X-11010520Y1726337D01*
X-11295110Y2292232D01*
X-11571743Y2842358D01*
X-11839887Y3375655D01*
X-12099008Y3891063D01*
X-12348575Y4387523D01*
X-12588055Y4863974D01*
X-12816916Y5319357D01*
X-13034624Y5752612D01*
X-13240647Y6162679D01*
X-13434453Y6548498D01*
X-13615510Y6909010D01*
X-13783284Y7243154D01*
X-13937243Y7549871D01*
X-14076855Y7828100D01*
X-14201588Y8076783D01*
X-14310907Y8294859D01*
X-14331306Y8335584D01*
X-9760853Y8335584D01*
X-7613020Y4208084D01*
X-5465188Y80584D01*
X-5478158Y-2612875D01*
X-5491128Y-5306333D01*
X-2919250Y-5307217D01*
X-1926214Y-7286290D01*
X-933177Y-9265363D01*
X62629Y-7289103D01*
X1058435Y-5312842D01*
X1541134Y-5299241D01*
X1677256Y-5296444D01*
X1847021Y-5294610D01*
X2041750Y-5293739D01*
X2252763Y-5293832D01*
X2471381Y-5294886D01*
X2688925Y-5296902D01*
X2864874Y-5299344D01*
X3705916Y-5313047D01*
X3700171Y-2530716D01*
X3694426Y251614D01*
X5785617Y4283016D01*
X7876807Y8314417D01*
X3505362Y8329828D01*
X3000700Y8331484D01*
X2459316Y8333033D01*
X1886820Y8334468D01*
X1288821Y8335783D01*
X670931Y8336970D01*
X38760Y8338023D01*
X-602081Y8338935D01*
X-1245983Y8339699D01*
X-1887335Y8340309D01*
X-2520526Y8340758D01*
X-3139946Y8341039D01*
X-3739985Y8341146D01*
X-4315032Y8341071D01*
X-4859476Y8340808D01*
X-5313468Y8340411D01*
X-9760853Y8335584D01*
X-14331306Y8335584D01*
X-14404282Y8481268D01*
X-14481180Y8634951D01*
X-14541067Y8754847D01*
X-14583412Y8839897D01*
X-14607682Y8889042D01*
X-14613726Y8901792D01*
X-14592838Y8903069D01*
X-14531236Y8904318D01*
X-14430542Y8905537D01*
X-14292374Y8906720D01*
X-14118352Y8907865D01*
X-13910097Y8908967D01*
X-13669228Y8910022D01*
X-13397365Y8911026D01*
X-13096128Y8911975D01*
X-12767138Y8912865D01*
X-12412014Y8913693D01*
X-12032376Y8914454D01*
X-11629844Y8915144D01*
X-11206038Y8915759D01*
X-10762578Y8916296D01*
X-10301084Y8916750D01*
X-9823175Y8917118D01*
X-9330473Y8917395D01*
X-8824596Y8917578D01*
X-8307164Y8917662D01*
X-8136834Y8917667D01*
X-1659834Y8917667D01*
X-1659834Y16897039D01*
X-1855625Y16885718D01*
X-2150009Y16868076D01*
X-2409485Y16851048D01*
X-2641462Y16833952D01*
X-2853346Y16816107D01*
X-3052545Y16796835D01*
X-3246464Y16775453D01*
X-3442512Y16751282D01*
X-3648094Y16723641D01*
X-3701531Y16716153D01*
X-4554506Y16574493D01*
X-5400044Y16391552D01*
X-6236150Y16168027D01*
X-7060831Y15904621D01*
X-7872093Y15602031D01*
X-8667943Y15260958D01*
X-9446386Y14882102D01*
X-10205430Y14466163D01*
X-10344772Y14384492D01*
X-11077378Y13926628D01*
X-11783389Y13437069D01*
X-12461991Y12917036D01*
X-13112375Y12367755D01*
X-13733727Y11790448D01*
X-14325237Y11186341D01*
X-14886092Y10556656D01*
X-15415482Y9902618D01*
X-15912594Y9225451D01*
X-16376616Y8526378D01*
X-16806737Y7806623D01*
X-17202146Y7067410D01*
X-17562030Y6309963D01*
X-17885577Y5535507D01*
X-18171977Y4745264D01*
X-18420417Y3940458D01*
X-18630086Y3122314D01*
X-18800172Y2292056D01*
X-18929864Y1450907D01*
X-18931619Y1437263D01*
X-19020763Y577008D01*
X-19067670Y-283413D01*
X-19072418Y-1142975D01*
X-20514559Y-1142975D01*
X-20520467Y-909912D01*
X-20501867Y-25885D01*
X-20442318Y856202D01*
X-20341893Y1734875D01*
X-20200662Y2608660D01*
X-20018698Y3476082D01*
X-19796072Y4335668D01*
X-19532857Y5185944D01*
X-19229125Y6025434D01*
X-19165416Y6187167D01*
X-19058926Y6445372D01*
X-18937079Y6726109D01*
X-18804254Y7020132D01*
X-18664828Y7318199D01*
X-18523181Y7611063D01*
X-18383691Y7889482D01*
X-18250738Y8144211D01*
X-18157797Y8314417D01*
X-17690854Y9107112D01*
X-17191967Y9872293D01*
X-16661547Y10609518D01*
X-16100005Y11318341D01*
X-15507750Y11998320D01*
X-14885194Y12649010D01*
X-14232747Y13269968D01*
X-13550819Y13860749D01*
X-12839820Y14420911D01*
X-12100162Y14950008D01*
X-11893917Y15088592D01*
X-11125432Y15572853D01*
X-10338460Y16019383D01*
X-9534289Y16427884D01*
X-8714208Y16798058D01*
X-7879504Y17129604D01*
X-7031465Y17422224D01*
X-6171380Y17675618D01*
X-5300536Y17889489D01*
X-4420221Y18063536D01*
X-3531724Y18197460D01*
X-2636333Y18290963D01*
X-1735335Y18343745D01*
X-830018Y18355507D01*
X78329Y18325951D01*
G37*
X78329Y18325951D02*
X988418Y18254777D01*
X1494000Y18197181D01*
X2396727Y18061666D01*
X3287932Y17885654D01*
X4166544Y17669672D01*
X5031493Y17414246D01*
X5881707Y17119901D01*
X6716118Y16787164D01*
X7533654Y16416561D01*
X8333245Y16008617D01*
X9113821Y15563859D01*
X9874311Y15082814D01*
X10613646Y14566006D01*
X11330755Y14013963D01*
X12024567Y13427210D01*
X12694012Y12806273D01*
X12924000Y12579325D01*
X13518828Y11953925D01*
X14088312Y11296828D01*
X14630174Y10611368D01*
X15142137Y9900879D01*
X15621922Y9168695D01*
X16067252Y8418150D01*
X16475850Y7652578D01*
X16845436Y6875312D01*
X16890584Y6773389D01*
X17227591Y5953654D01*
X17525291Y5119374D01*
X17783444Y4272310D01*
X18001808Y3414226D01*
X18180144Y2546881D01*
X18318211Y1672038D01*
X18415768Y791458D01*
X18472575Y-93097D01*
X18488392Y-979865D01*
X18462979Y-1867086D01*
X18396094Y-2752997D01*
X18299756Y-3551149D01*
X18152383Y-4437242D01*
X17964617Y-5311462D01*
X17737001Y-6172710D01*
X17470083Y-7019892D01*
X17164405Y-7851910D01*
X16820514Y-8667666D01*
X16438955Y-9466065D01*
X16020273Y-10246009D01*
X15565012Y-11006401D01*
X15073717Y-11746145D01*
X14546935Y-12464144D01*
X13985209Y-13159300D01*
X13389085Y-13830518D01*
X12980043Y-14256863D01*
X12622907Y-14611367D01*
X12279835Y-14937685D01*
X11942188Y-15243360D01*
X11601325Y-15535936D01*
X11248605Y-15822956D01*
X10875390Y-16111964D01*
X10730913Y-16220510D01*
X9992198Y-16745124D01*
X9232192Y-17233420D01*
X8452082Y-17684956D01*
X7653053Y-18099288D01*
X6836289Y-18475972D01*
X6002976Y-18814567D01*
X5154300Y-19114628D01*
X4291446Y-19375712D01*
X3415598Y-19597377D01*
X2527943Y-19779179D01*
X1629666Y-19920675D01*
X721951Y-20021422D01*
X520333Y-20038134D01*
X153410Y-20062527D01*
X-234440Y-20080706D01*
X-630267Y-20092378D01*
X-1021119Y-20097253D01*
X-1394044Y-20095039D01*
X-1681000Y-20087598D01*
X-2604695Y-20033074D01*
X-3519232Y-19937721D01*
X-4423727Y-19801747D01*
X-5317297Y-19625357D01*
X-6199061Y-19408757D01*
X-7068134Y-19152154D01*
X-7923633Y-18855754D01*
X-8764677Y-18519762D01*
X-9179893Y-18336806D01*
X-9989033Y-17946202D01*
X-10775955Y-17520663D01*
X-11539684Y-17061308D01*
X-12279246Y-16569258D01*
X-12993665Y-16045633D01*
X-13681967Y-15491552D01*
X-14343177Y-14908137D01*
X-14976320Y-14296506D01*
X-15580420Y-13657779D01*
X-16154504Y-12993078D01*
X-16697596Y-12303522D01*
X-17208721Y-11590230D01*
X-17686905Y-10854324D01*
X-18131172Y-10096922D01*
X-18540548Y-9319145D01*
X-18914057Y-8522114D01*
X-19250726Y-7706947D01*
X-19549578Y-6874766D01*
X-19768114Y-6172257D01*
X-19996717Y-5307549D01*
X-20183940Y-4435935D01*
X-20329855Y-3558890D01*
X-20434533Y-2677889D01*
X-20498046Y-1794405D01*
X-20514559Y-1142975D01*
X-19072418Y-1142975D01*
X-19035086Y-2000654D01*
X-18955755Y-2855424D01*
X-18834502Y-3706260D01*
X-18671408Y-4552137D01*
X-18466550Y-5392030D01*
X-18381095Y-5697916D01*
X-18125392Y-6506985D01*
X-17830551Y-7301185D01*
X-17497537Y-8079214D01*
X-17127314Y-8839766D01*
X-16720846Y-9581536D01*
X-16279097Y-10303222D01*
X-15803032Y-11003518D01*
X-15293614Y-11681120D01*
X-14751808Y-12334723D01*
X-14178578Y-12963025D01*
X-13574888Y-13564719D01*
X-12941703Y-14138502D01*
X-12279986Y-14683069D01*
X-11590701Y-15197116D01*
X-11121334Y-15518907D01*
X-10642746Y-15826250D01*
X-10168046Y-16110718D01*
X-9684385Y-16379564D01*
X-9178918Y-16640043D01*
X-8866015Y-16792379D01*
X-8127326Y-17122802D01*
X-7364412Y-17421140D01*
X-6582067Y-17686132D01*
X-5785084Y-17916517D01*
X-4978256Y-18111034D01*
X-4166375Y-18268423D01*
X-3354235Y-18387421D01*
X-2546629Y-18466768D01*
X-2485334Y-18471158D01*
X-2364432Y-18479630D01*
X-2251783Y-18487605D01*
X-2157246Y-18494379D01*
X-2090680Y-18499248D01*
X-2072584Y-18500622D01*
X-2012427Y-18504017D01*
X-1925469Y-18507351D01*
X-1827239Y-18510060D01*
X-1792125Y-18510775D01*
X-1596334Y-18514333D01*
X-1596334Y-13349666D01*
X-157000Y-13349666D01*
X-157000Y-18493166D01*
X-97732Y-18493166D01*
X-54835Y-18491560D01*
X20282Y-18487168D01*
X117646Y-18480629D01*
X227283Y-18472583D01*
X246227Y-18471126D01*
X1120106Y-18382664D01*
X1983849Y-18253684D01*
X2836270Y-18084748D01*
X3676178Y-17876419D01*
X4502385Y-17629259D01*
X5313703Y-17343830D01*
X6108942Y-17020695D01*
X6886915Y-16660415D01*
X7646433Y-16263555D01*
X8386307Y-15830675D01*
X9105348Y-15362339D01*
X9802368Y-14859109D01*
X10476178Y-14321546D01*
X11125590Y-13750214D01*
X11749415Y-13145676D01*
X11958493Y-12929495D01*
X12539930Y-12288075D01*
X13087070Y-11622837D01*
X13599332Y-10935021D01*
X14076136Y-10225865D01*
X14516901Y-9496607D01*
X14921047Y-8748484D01*
X15287992Y-7982735D01*
X15617157Y-7200598D01*
X15907961Y-6403311D01*
X16159823Y-5592112D01*
X16372164Y-4768239D01*
X16544401Y-3932930D01*
X16675955Y-3087424D01*
X16711902Y-2792658D01*
X16734676Y-2586050D01*
X16753636Y-2399099D01*
X16769110Y-2224910D01*
X16781426Y-2056586D01*
X16790913Y-1887230D01*
X16797900Y-1709947D01*
X16802713Y-1517840D01*
X16805683Y-1304013D01*
X16807137Y-1061570D01*
X16807407Y-787250D01*
X16806575Y-496678D01*
X16804249Y-241211D01*
X16800033Y-13637D01*
X16793533Y193258D01*
X16784354Y386688D01*
X16772101Y573866D01*
X16756378Y762006D01*
X16736793Y958321D01*
X16712948Y1170024D01*
X16689817Y1361167D01*
X16564183Y2205158D01*
X16397968Y3038554D01*
X16191870Y3860165D01*
X15946584Y4668799D01*
X15662806Y5463266D01*
X15341233Y6242375D01*
X14982559Y7004934D01*
X14587482Y7749753D01*
X14156697Y8475641D01*
X13690900Y9181406D01*
X13190787Y9865857D01*
X12657054Y10527804D01*
X12090398Y11166055D01*
X11491513Y11779420D01*
X10861097Y12366708D01*
X10199844Y12926726D01*
X9706666Y13311163D01*
X9423360Y13518120D01*
X9111284Y13734930D01*
X8780676Y13954991D01*
X8441770Y14171702D01*
X8104804Y14378464D01*
X7780013Y14568677D01*
X7600583Y14669181D01*
X6847781Y15059440D01*
X6074506Y15414577D01*
X5283738Y15733689D01*
X4478460Y16015877D01*
X3661654Y16260240D01*
X2836300Y16465875D01*
X2005381Y16631884D01*
X1171878Y16757365D01*
X435666Y16833790D01*
X318919Y16843345D01*
X203261Y16852847D01*
X102968Y16861122D01*
X38791Y16866454D01*
X-93500Y16877513D01*
X-93499Y12902882D01*
X-93497Y8928250D01*
X6318239Y8928250D01*
X6836601Y8928202D01*
X7344017Y8928058D01*
X7838853Y8927823D01*
X8319476Y8927500D01*
X8784252Y8927094D01*
X9231548Y8926608D01*
X9659732Y8926046D01*
X10067169Y8925411D01*
X10452226Y8924708D01*
X10813270Y8923941D01*
X11148668Y8923112D01*
X11456787Y8922227D01*
X11735993Y8921288D01*
X11984653Y8920300D01*
X12201133Y8919267D01*
X12383801Y8918191D01*
X12531024Y8917078D01*
X12641166Y8915930D01*
X12712597Y8914752D01*
X12743682Y8913547D01*
X12744940Y8913283D01*
X12736409Y8893660D01*
X12709391Y8837276D01*
X12664417Y8745189D01*
X12602017Y8618460D01*
X12522721Y8458148D01*
X12427060Y8265313D01*
X12315563Y8041015D01*
X12188761Y7786314D01*
X12047184Y7502269D01*
X11891362Y7189940D01*
X11721825Y6850387D01*
X11539103Y6484670D01*
X11343727Y6093849D01*
X11136226Y5678982D01*
X10917132Y5241131D01*
X10686973Y4781355D01*
X10446280Y4300713D01*
X10195584Y3800265D01*
X9935414Y3281072D01*
X9666301Y2744192D01*
X9388774Y2190686D01*
X9103364Y1621614D01*
X8810602Y1038035D01*
X8511016Y441009D01*
X8205138Y-168405D01*
X7893498Y-789145D01*
X7576625Y-1420154D01*
X7318213Y-1934634D01*
X1876519Y-12767583D01*
X6077342Y-12772927D01*
X10278166Y-12778271D01*
X10278166Y-13349666D01*
X-157000Y-13349666D01*
X-1596334Y-13349666D01*
X-12010334Y-13349666D01*
X-12010334Y-12778272D01*
X-7864062Y-12772927D01*
X-3717791Y-12767583D01*
X-9165704Y-1940833D01*
X-9486853Y-1302580D01*
X-9803240Y-673737D01*
X-10114333Y-55364D01*
X-10419599Y551479D01*
X-10718505Y1145733D01*
X-11010520Y1726337D01*
X-11295110Y2292232D01*
X-11571743Y2842358D01*
X-11839887Y3375655D01*
X-12099008Y3891063D01*
X-12348575Y4387523D01*
X-12588055Y4863974D01*
X-12816916Y5319357D01*
X-13034624Y5752612D01*
X-13240647Y6162679D01*
X-13434453Y6548498D01*
X-13615510Y6909010D01*
X-13783284Y7243154D01*
X-13937243Y7549871D01*
X-14076855Y7828100D01*
X-14201588Y8076783D01*
X-14310907Y8294859D01*
X-14331306Y8335584D01*
X-9760853Y8335584D01*
X-7613020Y4208084D01*
X-5465188Y80584D01*
X-5478158Y-2612875D01*
X-5491128Y-5306333D01*
X-2919250Y-5307217D01*
X-1926214Y-7286290D01*
X-933177Y-9265363D01*
X62629Y-7289103D01*
X1058435Y-5312842D01*
X1541134Y-5299241D01*
X1677256Y-5296444D01*
X1847021Y-5294610D01*
X2041750Y-5293739D01*
X2252763Y-5293832D01*
X2471381Y-5294886D01*
X2688925Y-5296902D01*
X2864874Y-5299344D01*
X3705916Y-5313047D01*
X3700171Y-2530716D01*
X3694426Y251614D01*
X5785617Y4283016D01*
X7876807Y8314417D01*
X3505362Y8329828D01*
X3000700Y8331484D01*
X2459316Y8333033D01*
X1886820Y8334468D01*
X1288821Y8335783D01*
X670931Y8336970D01*
X38760Y8338023D01*
X-602081Y8338935D01*
X-1245983Y8339699D01*
X-1887335Y8340309D01*
X-2520526Y8340758D01*
X-3139946Y8341039D01*
X-3739985Y8341146D01*
X-4315032Y8341071D01*
X-4859476Y8340808D01*
X-5313468Y8340411D01*
X-9760853Y8335584D01*
X-14331306Y8335584D01*
X-14404282Y8481268D01*
X-14481180Y8634951D01*
X-14541067Y8754847D01*
X-14583412Y8839897D01*
X-14607682Y8889042D01*
X-14613726Y8901792D01*
X-14592838Y8903069D01*
X-14531236Y8904318D01*
X-14430542Y8905537D01*
X-14292374Y8906720D01*
X-14118352Y8907865D01*
X-13910097Y8908967D01*
X-13669228Y8910022D01*
X-13397365Y8911026D01*
X-13096128Y8911975D01*
X-12767138Y8912865D01*
X-12412014Y8913693D01*
X-12032376Y8914454D01*
X-11629844Y8915144D01*
X-11206038Y8915759D01*
X-10762578Y8916296D01*
X-10301084Y8916750D01*
X-9823175Y8917118D01*
X-9330473Y8917395D01*
X-8824596Y8917578D01*
X-8307164Y8917662D01*
X-8136834Y8917667D01*
X-1659834Y8917667D01*
X-1659834Y16897039D01*
X-1855625Y16885718D01*
X-2150009Y16868076D01*
X-2409485Y16851048D01*
X-2641462Y16833952D01*
X-2853346Y16816107D01*
X-3052545Y16796835D01*
X-3246464Y16775453D01*
X-3442512Y16751282D01*
X-3648094Y16723641D01*
X-3701531Y16716153D01*
X-4554506Y16574493D01*
X-5400044Y16391552D01*
X-6236150Y16168027D01*
X-7060831Y15904621D01*
X-7872093Y15602031D01*
X-8667943Y15260958D01*
X-9446386Y14882102D01*
X-10205430Y14466163D01*
X-10344772Y14384492D01*
X-11077378Y13926628D01*
X-11783389Y13437069D01*
X-12461991Y12917036D01*
X-13112375Y12367755D01*
X-13733727Y11790448D01*
X-14325237Y11186341D01*
X-14886092Y10556656D01*
X-15415482Y9902618D01*
X-15912594Y9225451D01*
X-16376616Y8526378D01*
X-16806737Y7806623D01*
X-17202146Y7067410D01*
X-17562030Y6309963D01*
X-17885577Y5535507D01*
X-18171977Y4745264D01*
X-18420417Y3940458D01*
X-18630086Y3122314D01*
X-18800172Y2292056D01*
X-18929864Y1450907D01*
X-18931619Y1437263D01*
X-19020763Y577008D01*
X-19067670Y-283413D01*
X-19072418Y-1142975D01*
X-20514559Y-1142975D01*
X-20520467Y-909912D01*
X-20501867Y-25885D01*
X-20442318Y856202D01*
X-20341893Y1734875D01*
X-20200662Y2608660D01*
X-20018698Y3476082D01*
X-19796072Y4335668D01*
X-19532857Y5185944D01*
X-19229125Y6025434D01*
X-19165416Y6187167D01*
X-19058926Y6445372D01*
X-18937079Y6726109D01*
X-18804254Y7020132D01*
X-18664828Y7318199D01*
X-18523181Y7611063D01*
X-18383691Y7889482D01*
X-18250738Y8144211D01*
X-18157797Y8314417D01*
X-17690854Y9107112D01*
X-17191967Y9872293D01*
X-16661547Y10609518D01*
X-16100005Y11318341D01*
X-15507750Y11998320D01*
X-14885194Y12649010D01*
X-14232747Y13269968D01*
X-13550819Y13860749D01*
X-12839820Y14420911D01*
X-12100162Y14950008D01*
X-11893917Y15088592D01*
X-11125432Y15572853D01*
X-10338460Y16019383D01*
X-9534289Y16427884D01*
X-8714208Y16798058D01*
X-7879504Y17129604D01*
X-7031465Y17422224D01*
X-6171380Y17675618D01*
X-5300536Y17889489D01*
X-4420221Y18063536D01*
X-3531724Y18197460D01*
X-2636333Y18290963D01*
X-1735335Y18343745D01*
X-830018Y18355507D01*
X78329Y18325951D01*
G36*
X-8240379Y-7295305D02*
G01*
X-8202497Y-7334179D01*
X-8148255Y-7405752D01*
X-8078625Y-7507933D01*
X-8021621Y-7595450D01*
X-7974314Y-7670418D01*
X-7941061Y-7725757D01*
X-7926217Y-7754390D01*
X-7925838Y-7756240D01*
X-7944320Y-7767984D01*
X-7997923Y-7797868D01*
X-8084168Y-7844582D01*
X-8200574Y-7906820D01*
X-8344659Y-7983275D01*
X-8513943Y-8072638D01*
X-8705945Y-8173602D01*
X-8918184Y-8284861D01*
X-9148180Y-8405106D01*
X-9393451Y-8533030D01*
X-9651518Y-8667326D01*
X-9863963Y-8777666D01*
X-10131031Y-8916323D01*
X-10387732Y-9049724D01*
X-10631540Y-9176550D01*
X-10859929Y-9295482D01*
X-11070375Y-9405201D01*
X-11260351Y-9504386D01*
X-11427333Y-9591719D01*
X-11568796Y-9665881D01*
X-11682213Y-9725552D01*
X-11765059Y-9769412D01*
X-11814809Y-9796144D01*
X-11829009Y-9804250D01*
X-11833495Y-9818846D01*
X-11826132Y-9849938D01*
X-11805220Y-9901134D01*
X-11769060Y-9976045D01*
X-11715953Y-10078280D01*
X-11644198Y-10211448D01*
X-11594805Y-10301666D01*
X-11523956Y-10431145D01*
X-11460382Y-10548469D01*
X-11406800Y-10648530D01*
X-11365927Y-10726220D01*
X-11340480Y-10776431D01*
X-11333005Y-10793791D01*
X-11350354Y-10805798D01*
X-11370042Y-10806627D01*
X-11397776Y-10805537D01*
X-11463768Y-10803530D01*
X-11563952Y-10800712D01*
X-11694265Y-10797191D01*
X-11850644Y-10793076D01*
X-12029023Y-10788473D01*
X-12225340Y-10783491D01*
X-12435530Y-10778237D01*
X-12528917Y-10775927D01*
X-12750677Y-10770435D01*
X-12965852Y-10765061D01*
X-13169538Y-10759931D01*
X-13356827Y-10755170D01*
X-13522816Y-10750903D01*
X-13662598Y-10747256D01*
X-13771269Y-10744355D01*
X-13843923Y-10742326D01*
X-13857353Y-10741924D01*
X-14063955Y-10735583D01*
X-13335425Y-9564544D01*
X-13209727Y-9362600D01*
X-13090554Y-9171338D01*
X-12979796Y-8993777D01*
X-12879343Y-8832940D01*
X-12791086Y-8691847D01*
X-12716915Y-8573520D01*
X-12658720Y-8480978D01*
X-12618391Y-8417244D01*
X-12597820Y-8385338D01*
X-12595600Y-8382210D01*
X-12583530Y-8397242D01*
X-12555347Y-8445399D01*
X-12513647Y-8521834D01*
X-12461028Y-8621699D01*
X-12400087Y-8740145D01*
X-12338795Y-8861577D01*
X-12093286Y-9352240D01*
X-11983018Y-9290765D01*
X-11930315Y-9261724D01*
X-11846214Y-9215823D01*
X-11733786Y-9154717D01*
X-11596102Y-9080061D01*
X-11436236Y-8993510D01*
X-11257259Y-8896719D01*
X-11062242Y-8791344D01*
X-10854258Y-8679039D01*
X-10636378Y-8561461D01*
X-10411675Y-8440263D01*
X-10183220Y-8317101D01*
X-9954085Y-8193630D01*
X-9727342Y-8071506D01*
X-9506063Y-7952384D01*
X-9293319Y-7837918D01*
X-9092183Y-7729764D01*
X-8905727Y-7629578D01*
X-8737022Y-7539013D01*
X-8589140Y-7459726D01*
X-8465153Y-7393372D01*
X-8368133Y-7341605D01*
X-8301152Y-7306081D01*
X-8267282Y-7288455D01*
X-8263834Y-7286826D01*
X-8240379Y-7295305D01*
G37*
X-8240379Y-7295305D02*
X-8202497Y-7334179D01*
X-8148255Y-7405752D01*
X-8078625Y-7507933D01*
X-8021621Y-7595450D01*
X-7974314Y-7670418D01*
X-7941061Y-7725757D01*
X-7926217Y-7754390D01*
X-7925838Y-7756240D01*
X-7944320Y-7767984D01*
X-7997923Y-7797868D01*
X-8084168Y-7844582D01*
X-8200574Y-7906820D01*
X-8344659Y-7983275D01*
X-8513943Y-8072638D01*
X-8705945Y-8173602D01*
X-8918184Y-8284861D01*
X-9148180Y-8405106D01*
X-9393451Y-8533030D01*
X-9651518Y-8667326D01*
X-9863963Y-8777666D01*
X-10131031Y-8916323D01*
X-10387732Y-9049724D01*
X-10631540Y-9176550D01*
X-10859929Y-9295482D01*
X-11070375Y-9405201D01*
X-11260351Y-9504386D01*
X-11427333Y-9591719D01*
X-11568796Y-9665881D01*
X-11682213Y-9725552D01*
X-11765059Y-9769412D01*
X-11814809Y-9796144D01*
X-11829009Y-9804250D01*
X-11833495Y-9818846D01*
X-11826132Y-9849938D01*
X-11805220Y-9901134D01*
X-11769060Y-9976045D01*
X-11715953Y-10078280D01*
X-11644198Y-10211448D01*
X-11594805Y-10301666D01*
X-11523956Y-10431145D01*
X-11460382Y-10548469D01*
X-11406800Y-10648530D01*
X-11365927Y-10726220D01*
X-11340480Y-10776431D01*
X-11333005Y-10793791D01*
X-11350354Y-10805798D01*
X-11370042Y-10806627D01*
X-11397776Y-10805537D01*
X-11463768Y-10803530D01*
X-11563952Y-10800712D01*
X-11694265Y-10797191D01*
X-11850644Y-10793076D01*
X-12029023Y-10788473D01*
X-12225340Y-10783491D01*
X-12435530Y-10778237D01*
X-12528917Y-10775927D01*
X-12750677Y-10770435D01*
X-12965852Y-10765061D01*
X-13169538Y-10759931D01*
X-13356827Y-10755170D01*
X-13522816Y-10750903D01*
X-13662598Y-10747256D01*
X-13771269Y-10744355D01*
X-13843923Y-10742326D01*
X-13857353Y-10741924D01*
X-14063955Y-10735583D01*
X-13335425Y-9564544D01*
X-13209727Y-9362600D01*
X-13090554Y-9171338D01*
X-12979796Y-8993777D01*
X-12879343Y-8832940D01*
X-12791086Y-8691847D01*
X-12716915Y-8573520D01*
X-12658720Y-8480978D01*
X-12618391Y-8417244D01*
X-12597820Y-8385338D01*
X-12595600Y-8382210D01*
X-12583530Y-8397242D01*
X-12555347Y-8445399D01*
X-12513647Y-8521834D01*
X-12461028Y-8621699D01*
X-12400087Y-8740145D01*
X-12338795Y-8861577D01*
X-12093286Y-9352240D01*
X-11983018Y-9290765D01*
X-11930315Y-9261724D01*
X-11846214Y-9215823D01*
X-11733786Y-9154717D01*
X-11596102Y-9080061D01*
X-11436236Y-8993510D01*
X-11257259Y-8896719D01*
X-11062242Y-8791344D01*
X-10854258Y-8679039D01*
X-10636378Y-8561461D01*
X-10411675Y-8440263D01*
X-10183220Y-8317101D01*
X-9954085Y-8193630D01*
X-9727342Y-8071506D01*
X-9506063Y-7952384D01*
X-9293319Y-7837918D01*
X-9092183Y-7729764D01*
X-8905727Y-7629578D01*
X-8737022Y-7539013D01*
X-8589140Y-7459726D01*
X-8465153Y-7393372D01*
X-8368133Y-7341605D01*
X-8301152Y-7306081D01*
X-8267282Y-7288455D01*
X-8263834Y-7286826D01*
X-8240379Y-7295305D01*
G36*
X-10010005Y-4015857D02*
G01*
X-9965592Y-4065212D01*
X-9902852Y-4150574D01*
X-9854835Y-4221538D01*
X-9798031Y-4308953D01*
X-9750915Y-4384323D01*
X-9717917Y-4440353D01*
X-9703463Y-4469744D01*
X-9703167Y-4471478D01*
X-9721547Y-4483880D01*
X-9775029Y-4514435D01*
X-9861126Y-4561822D01*
X-9977353Y-4624721D01*
X-10121223Y-4701811D01*
X-10290249Y-4791772D01*
X-10481945Y-4893283D01*
X-10693825Y-5005024D01*
X-10923402Y-5125673D01*
X-11168190Y-5253911D01*
X-11425703Y-5388416D01*
X-11627906Y-5493766D01*
X-11894203Y-5632432D01*
X-12150266Y-5765908D01*
X-12393551Y-5892860D01*
X-12621512Y-6011955D01*
X-12831603Y-6121857D01*
X-13021280Y-6221231D01*
X-13187996Y-6308745D01*
X-13329207Y-6383062D01*
X-13442366Y-6442849D01*
X-13524929Y-6486771D01*
X-13574350Y-6513494D01*
X-13588077Y-6521403D01*
X-13597352Y-6532448D01*
X-13599296Y-6550558D01*
X-13591947Y-6580142D01*
X-13573341Y-6625610D01*
X-13541515Y-6691375D01*
X-13494507Y-6781845D01*
X-13430353Y-6901433D01*
X-13367254Y-7017567D01*
X-13297358Y-7146614D01*
X-13234724Y-7263751D01*
X-13182077Y-7363756D01*
X-13142144Y-7441408D01*
X-13117651Y-7491486D01*
X-13111000Y-7508328D01*
X-13129809Y-7520156D01*
X-13177124Y-7525696D01*
X-13200959Y-7525566D01*
X-13240069Y-7524357D01*
X-13316884Y-7522174D01*
X-13426790Y-7519141D01*
X-13565171Y-7515383D01*
X-13727415Y-7511025D01*
X-13908906Y-7506190D01*
X-14105031Y-7501005D01*
X-14296334Y-7495981D01*
X-14509628Y-7490499D01*
X-14718963Y-7485308D01*
X-14918677Y-7480537D01*
X-15103108Y-7476312D01*
X-15266592Y-7472761D01*
X-15403468Y-7470011D01*
X-15508073Y-7468190D01*
X-15563307Y-7467498D01*
X-15672321Y-7466122D01*
X-15745422Y-7463462D01*
X-15789028Y-7458515D01*
X-15809559Y-7450278D01*
X-15813434Y-7437748D01*
X-15810848Y-7428811D01*
X-15797026Y-7403598D01*
X-15763387Y-7346842D01*
X-15712204Y-7262198D01*
X-15645751Y-7153324D01*
X-15566303Y-7023877D01*
X-15476134Y-6877512D01*
X-15377517Y-6717888D01*
X-15272727Y-6548659D01*
X-15164037Y-6373484D01*
X-15053722Y-6196019D01*
X-14944056Y-6019919D01*
X-14837312Y-5848843D01*
X-14735766Y-5686447D01*
X-14641690Y-5536387D01*
X-14557359Y-5402320D01*
X-14485047Y-5287902D01*
X-14427027Y-5196791D01*
X-14385575Y-5132644D01*
X-14362963Y-5099115D01*
X-14359466Y-5094971D01*
X-14347465Y-5113032D01*
X-14319346Y-5164042D01*
X-14277722Y-5242988D01*
X-14225208Y-5344856D01*
X-14164416Y-5464632D01*
X-14105834Y-5581500D01*
X-14040272Y-5712857D01*
X-13981255Y-5830786D01*
X-13931302Y-5930280D01*
X-13892931Y-6006334D01*
X-13868658Y-6053942D01*
X-13860955Y-6068333D01*
X-13842444Y-6058477D01*
X-13789179Y-6029802D01*
X-13703632Y-5983643D01*
X-13588275Y-5921337D01*
X-13445579Y-5844221D01*
X-13278018Y-5753632D01*
X-13088062Y-5650907D01*
X-12878185Y-5537381D01*
X-12650859Y-5414392D01*
X-12408555Y-5283276D01*
X-12153746Y-5145370D01*
X-11961589Y-5041358D01*
X-11698583Y-4899031D01*
X-11445824Y-4762336D01*
X-11205831Y-4632628D01*
X-10981122Y-4511266D01*
X-10774215Y-4399607D01*
X-10587628Y-4299007D01*
X-10423879Y-4210824D01*
X-10285486Y-4136415D01*
X-10174969Y-4077138D01*
X-10094844Y-4034348D01*
X-10047630Y-4009405D01*
X-10035462Y-4003270D01*
X-10010005Y-4015857D01*
G37*
X-10010005Y-4015857D02*
X-9965592Y-4065212D01*
X-9902852Y-4150574D01*
X-9854835Y-4221538D01*
X-9798031Y-4308953D01*
X-9750915Y-4384323D01*
X-9717917Y-4440353D01*
X-9703463Y-4469744D01*
X-9703167Y-4471478D01*
X-9721547Y-4483880D01*
X-9775029Y-4514435D01*
X-9861126Y-4561822D01*
X-9977353Y-4624721D01*
X-10121223Y-4701811D01*
X-10290249Y-4791772D01*
X-10481945Y-4893283D01*
X-10693825Y-5005024D01*
X-10923402Y-5125673D01*
X-11168190Y-5253911D01*
X-11425703Y-5388416D01*
X-11627906Y-5493766D01*
X-11894203Y-5632432D01*
X-12150266Y-5765908D01*
X-12393551Y-5892860D01*
X-12621512Y-6011955D01*
X-12831603Y-6121857D01*
X-13021280Y-6221231D01*
X-13187996Y-6308745D01*
X-13329207Y-6383062D01*
X-13442366Y-6442849D01*
X-13524929Y-6486771D01*
X-13574350Y-6513494D01*
X-13588077Y-6521403D01*
X-13597352Y-6532448D01*
X-13599296Y-6550558D01*
X-13591947Y-6580142D01*
X-13573341Y-6625610D01*
X-13541515Y-6691375D01*
X-13494507Y-6781845D01*
X-13430353Y-6901433D01*
X-13367254Y-7017567D01*
X-13297358Y-7146614D01*
X-13234724Y-7263751D01*
X-13182077Y-7363756D01*
X-13142144Y-7441408D01*
X-13117651Y-7491486D01*
X-13111000Y-7508328D01*
X-13129809Y-7520156D01*
X-13177124Y-7525696D01*
X-13200959Y-7525566D01*
X-13240069Y-7524357D01*
X-13316884Y-7522174D01*
X-13426790Y-7519141D01*
X-13565171Y-7515383D01*
X-13727415Y-7511025D01*
X-13908906Y-7506190D01*
X-14105031Y-7501005D01*
X-14296334Y-7495981D01*
X-14509628Y-7490499D01*
X-14718963Y-7485308D01*
X-14918677Y-7480537D01*
X-15103108Y-7476312D01*
X-15266592Y-7472761D01*
X-15403468Y-7470011D01*
X-15508073Y-7468190D01*
X-15563307Y-7467498D01*
X-15672321Y-7466122D01*
X-15745422Y-7463462D01*
X-15789028Y-7458515D01*
X-15809559Y-7450278D01*
X-15813434Y-7437748D01*
X-15810848Y-7428811D01*
X-15797026Y-7403598D01*
X-15763387Y-7346842D01*
X-15712204Y-7262198D01*
X-15645751Y-7153324D01*
X-15566303Y-7023877D01*
X-15476134Y-6877512D01*
X-15377517Y-6717888D01*
X-15272727Y-6548659D01*
X-15164037Y-6373484D01*
X-15053722Y-6196019D01*
X-14944056Y-6019919D01*
X-14837312Y-5848843D01*
X-14735766Y-5686447D01*
X-14641690Y-5536387D01*
X-14557359Y-5402320D01*
X-14485047Y-5287902D01*
X-14427027Y-5196791D01*
X-14385575Y-5132644D01*
X-14362963Y-5099115D01*
X-14359466Y-5094971D01*
X-14347465Y-5113032D01*
X-14319346Y-5164042D01*
X-14277722Y-5242988D01*
X-14225208Y-5344856D01*
X-14164416Y-5464632D01*
X-14105834Y-5581500D01*
X-14040272Y-5712857D01*
X-13981255Y-5830786D01*
X-13931302Y-5930280D01*
X-13892931Y-6006334D01*
X-13868658Y-6053942D01*
X-13860955Y-6068333D01*
X-13842444Y-6058477D01*
X-13789179Y-6029802D01*
X-13703632Y-5983643D01*
X-13588275Y-5921337D01*
X-13445579Y-5844221D01*
X-13278018Y-5753632D01*
X-13088062Y-5650907D01*
X-12878185Y-5537381D01*
X-12650859Y-5414392D01*
X-12408555Y-5283276D01*
X-12153746Y-5145370D01*
X-11961589Y-5041358D01*
X-11698583Y-4899031D01*
X-11445824Y-4762336D01*
X-11205831Y-4632628D01*
X-10981122Y-4511266D01*
X-10774215Y-4399607D01*
X-10587628Y-4299007D01*
X-10423879Y-4210824D01*
X-10285486Y-4136415D01*
X-10174969Y-4077138D01*
X-10094844Y-4034348D01*
X-10047630Y-4009405D01*
X-10035462Y-4003270D01*
X-10010005Y-4015857D01*
G36*
X-2929834Y1636334D02*
G01*
X1176500Y1636334D01*
X1176500Y7182000D01*
X3483666Y7182000D01*
X3483666Y-5094666D01*
X1176500Y-5094666D01*
X1176500Y-162833D01*
X-2929834Y-162833D01*
X-2929834Y-5094666D01*
X-5258167Y-5094666D01*
X-5258167Y7182000D01*
X-2929834Y7182000D01*
X-2929834Y1636334D01*
G37*
X-2929834Y1636334D02*
X1176500Y1636334D01*
X1176500Y7182000D01*
X3483666Y7182000D01*
X3483666Y-5094666D01*
X1176500Y-5094666D01*
X1176500Y-162833D01*
X-2929834Y-162833D01*
X-2929834Y-5094666D01*
X-5258167Y-5094666D01*
X-5258167Y7182000D01*
X-2929834Y7182000D01*
X-2929834Y1636334D01*
G36*
X-6581084Y8149372D02*
G01*
X-6353336Y8130768D01*
X-6132967Y8093607D01*
X-5932661Y8040385D01*
X-5824375Y8000527D01*
X-5745000Y7967327D01*
X-5745000Y7627581D01*
X-5745086Y7491770D01*
X-5747465Y7394338D01*
X-5755325Y7331337D01*
X-5771851Y7298821D01*
X-5800228Y7292844D01*
X-5843644Y7309460D01*
X-5905283Y7344723D01*
X-5951020Y7372393D01*
X-6093030Y7451660D01*
X-6216854Y7505000D01*
X-6334370Y7536289D01*
X-6457456Y7549403D01*
X-6496417Y7550365D01*
X-6647630Y7539073D01*
X-6767144Y7500970D01*
X-6857243Y7434489D01*
X-6920213Y7338064D01*
X-6952816Y7237308D01*
X-6964525Y7097713D01*
X-6938359Y6949841D01*
X-6873720Y6791911D01*
X-6770010Y6622144D01*
X-6725822Y6561515D01*
X-6659865Y6481678D01*
X-6568054Y6380905D01*
X-6456864Y6265585D01*
X-6332770Y6142110D01*
X-6202251Y6016870D01*
X-6071780Y5896256D01*
X-5947836Y5786658D01*
X-5896484Y5743111D01*
X-5681500Y5563638D01*
X-5681500Y4917167D01*
X-7861667Y4917167D01*
X-7861667Y5636834D01*
X-7253125Y5637764D01*
X-6644584Y5638695D01*
X-6761000Y5737871D01*
X-6865186Y5829947D01*
X-6978845Y5935996D01*
X-7094930Y6048913D01*
X-7206395Y6161591D01*
X-7306194Y6266925D01*
X-7387280Y6357808D01*
X-7437421Y6420000D01*
X-7551356Y6588189D01*
X-7633118Y6744680D01*
X-7686422Y6900230D01*
X-7714982Y7065594D01*
X-7722560Y7245500D01*
X-7716199Y7405417D01*
X-7696869Y7534551D01*
X-7660913Y7643415D01*
X-7604674Y7742523D01*
X-7524496Y7842387D01*
X-7509098Y7859250D01*
X-7391827Y7966433D01*
X-7260109Y8047645D01*
X-7108846Y8104481D01*
X-6932941Y8138533D01*
X-6727296Y8151397D01*
X-6581084Y8149372D01*
G37*
X-6581084Y8149372D02*
X-6353336Y8130768D01*
X-6132967Y8093607D01*
X-5932661Y8040385D01*
X-5824375Y8000527D01*
X-5745000Y7967327D01*
X-5745000Y7627581D01*
X-5745086Y7491770D01*
X-5747465Y7394338D01*
X-5755325Y7331337D01*
X-5771851Y7298821D01*
X-5800228Y7292844D01*
X-5843644Y7309460D01*
X-5905283Y7344723D01*
X-5951020Y7372393D01*
X-6093030Y7451660D01*
X-6216854Y7505000D01*
X-6334370Y7536289D01*
X-6457456Y7549403D01*
X-6496417Y7550365D01*
X-6647630Y7539073D01*
X-6767144Y7500970D01*
X-6857243Y7434489D01*
X-6920213Y7338064D01*
X-6952816Y7237308D01*
X-6964525Y7097713D01*
X-6938359Y6949841D01*
X-6873720Y6791911D01*
X-6770010Y6622144D01*
X-6725822Y6561515D01*
X-6659865Y6481678D01*
X-6568054Y6380905D01*
X-6456864Y6265585D01*
X-6332770Y6142110D01*
X-6202251Y6016870D01*
X-6071780Y5896256D01*
X-5947836Y5786658D01*
X-5896484Y5743111D01*
X-5681500Y5563638D01*
X-5681500Y4917167D01*
X-7861667Y4917167D01*
X-7861667Y5636834D01*
X-7253125Y5637764D01*
X-6644584Y5638695D01*
X-6761000Y5737871D01*
X-6865186Y5829947D01*
X-6978845Y5935996D01*
X-7094930Y6048913D01*
X-7206395Y6161591D01*
X-7306194Y6266925D01*
X-7387280Y6357808D01*
X-7437421Y6420000D01*
X-7551356Y6588189D01*
X-7633118Y6744680D01*
X-7686422Y6900230D01*
X-7714982Y7065594D01*
X-7722560Y7245500D01*
X-7716199Y7405417D01*
X-7696869Y7534551D01*
X-7660913Y7643415D01*
X-7604674Y7742523D01*
X-7524496Y7842387D01*
X-7509098Y7859250D01*
X-7391827Y7966433D01*
X-7260109Y8047645D01*
X-7108846Y8104481D01*
X-6932941Y8138533D01*
X-6727296Y8151397D01*
X-6581084Y8149372D01*
M02*
