G04 #@! TF.GenerationSoftware,KiCad,Pcbnew,(5.1.10-1-10_14)*
G04 #@! TF.CreationDate,2021-08-06T16:45:07+03:00*
G04 #@! TF.ProjectId,hhv_coin,6868765f-636f-4696-9e2e-6b696361645f,rev?*
G04 #@! TF.SameCoordinates,Original*
G04 #@! TF.FileFunction,Copper,L4,Bot*
G04 #@! TF.FilePolarity,Positive*
%FSLAX46Y46*%
G04 Gerber Fmt 4.6, Leading zero omitted, Abs format (unit mm)*
G04 Created by KiCad (PCBNEW (5.1.10-1-10_14)) date 2021-08-06 16:45:07*
%MOMM*%
%LPD*%
G01*
G04 APERTURE LIST*
G04 #@! TA.AperFunction,NonConductor*
%ADD10C,0.150000*%
G04 #@! TD*
G04 #@! TA.AperFunction,EtchedComponent*
%ADD11C,0.010000*%
G04 #@! TD*
G04 APERTURE END LIST*
D10*
X7271428Y-15152380D02*
X7271428Y-14152380D01*
X7033333Y-14152380D01*
X6890476Y-14200000D01*
X6795238Y-14295238D01*
X6747619Y-14390476D01*
X6700000Y-14580952D01*
X6700000Y-14723809D01*
X6747619Y-14914285D01*
X6795238Y-15009523D01*
X6890476Y-15104761D01*
X7033333Y-15152380D01*
X7271428Y-15152380D01*
X5700000Y-15057142D02*
X5747619Y-15104761D01*
X5890476Y-15152380D01*
X5985714Y-15152380D01*
X6128571Y-15104761D01*
X6223809Y-15009523D01*
X6271428Y-14914285D01*
X6319047Y-14723809D01*
X6319047Y-14580952D01*
X6271428Y-14390476D01*
X6223809Y-14295238D01*
X6128571Y-14200000D01*
X5985714Y-14152380D01*
X5890476Y-14152380D01*
X5747619Y-14200000D01*
X5700000Y-14247619D01*
X4557142Y-14247619D02*
X4509523Y-14200000D01*
X4414285Y-14152380D01*
X4176190Y-14152380D01*
X4080952Y-14200000D01*
X4033333Y-14247619D01*
X3985714Y-14342857D01*
X3985714Y-14438095D01*
X4033333Y-14580952D01*
X4604761Y-15152380D01*
X3985714Y-15152380D01*
X3509523Y-15152380D02*
X3319047Y-15152380D01*
X3223809Y-15104761D01*
X3176190Y-15057142D01*
X3080952Y-14914285D01*
X3033333Y-14723809D01*
X3033333Y-14342857D01*
X3080952Y-14247619D01*
X3128571Y-14200000D01*
X3223809Y-14152380D01*
X3414285Y-14152380D01*
X3509523Y-14200000D01*
X3557142Y-14247619D01*
X3604761Y-14342857D01*
X3604761Y-14580952D01*
X3557142Y-14676190D01*
X3509523Y-14723809D01*
X3414285Y-14771428D01*
X3223809Y-14771428D01*
X3128571Y-14723809D01*
X3080952Y-14676190D01*
X3033333Y-14580952D01*
X-3299999Y-15057142D02*
X-3252380Y-15104761D01*
X-3109523Y-15152380D01*
X-3014285Y-15152380D01*
X-2871428Y-15104761D01*
X-2776190Y-15009523D01*
X-2728571Y-14914285D01*
X-2680952Y-14723809D01*
X-2680952Y-14580952D01*
X-2728571Y-14390476D01*
X-2776190Y-14295238D01*
X-2871428Y-14200000D01*
X-3014285Y-14152380D01*
X-3109523Y-14152380D01*
X-3252380Y-14200000D01*
X-3299999Y-14247619D01*
X-3728571Y-15152380D02*
X-3728571Y-14152380D01*
X-4157142Y-15152380D02*
X-4157142Y-14628571D01*
X-4109523Y-14533333D01*
X-4014285Y-14485714D01*
X-3871428Y-14485714D01*
X-3776190Y-14533333D01*
X-3728571Y-14580952D01*
X-5061904Y-15152380D02*
X-5061904Y-14628571D01*
X-5014285Y-14533333D01*
X-4919047Y-14485714D01*
X-4728571Y-14485714D01*
X-4633333Y-14533333D01*
X-5061904Y-15104761D02*
X-4966666Y-15152380D01*
X-4728571Y-15152380D01*
X-4633333Y-15104761D01*
X-4585714Y-15009523D01*
X-4585714Y-14914285D01*
X-4633333Y-14819047D01*
X-4728571Y-14771428D01*
X-4966666Y-14771428D01*
X-5061904Y-14723809D01*
X-5680952Y-15152380D02*
X-5585714Y-15104761D01*
X-5538095Y-15009523D01*
X-5538095Y-14152380D01*
X-6204761Y-15152380D02*
X-6109523Y-15104761D01*
X-6061904Y-15009523D01*
X-6061904Y-14152380D01*
X-6966666Y-15104761D02*
X-6871428Y-15152380D01*
X-6680952Y-15152380D01*
X-6585714Y-15104761D01*
X-6538095Y-15009523D01*
X-6538095Y-14628571D01*
X-6585714Y-14533333D01*
X-6680952Y-14485714D01*
X-6871428Y-14485714D01*
X-6966666Y-14533333D01*
X-7014285Y-14628571D01*
X-7014285Y-14723809D01*
X-6538095Y-14819047D01*
X-7442857Y-14485714D02*
X-7442857Y-15152380D01*
X-7442857Y-14580952D02*
X-7490476Y-14533333D01*
X-7585714Y-14485714D01*
X-7728571Y-14485714D01*
X-7823809Y-14533333D01*
X-7871428Y-14628571D01*
X-7871428Y-15152380D01*
X-8776190Y-14485714D02*
X-8776190Y-15295238D01*
X-8728571Y-15390476D01*
X-8680952Y-15438095D01*
X-8585714Y-15485714D01*
X-8442857Y-15485714D01*
X-8347619Y-15438095D01*
X-8776190Y-15104761D02*
X-8680952Y-15152380D01*
X-8490476Y-15152380D01*
X-8395238Y-15104761D01*
X-8347619Y-15057142D01*
X-8299999Y-14961904D01*
X-8299999Y-14676190D01*
X-8347619Y-14580952D01*
X-8395238Y-14533333D01*
X-8490476Y-14485714D01*
X-8680952Y-14485714D01*
X-8776190Y-14533333D01*
X-9633333Y-15104761D02*
X-9538095Y-15152380D01*
X-9347619Y-15152380D01*
X-9252380Y-15104761D01*
X-9204761Y-15009523D01*
X-9204761Y-14628571D01*
X-9252380Y-14533333D01*
X-9347619Y-14485714D01*
X-9538095Y-14485714D01*
X-9633333Y-14533333D01*
X-9680952Y-14628571D01*
X-9680952Y-14723809D01*
X-9204761Y-14819047D01*
D11*
G36*
X-459809Y18373962D02*
G01*
X139307Y18351871D01*
X718082Y18313851D01*
X1071802Y18281258D01*
X1971418Y18167017D01*
X2863441Y18011514D01*
X3746316Y17815295D01*
X4618491Y17578905D01*
X5478410Y17302889D01*
X6324520Y16987795D01*
X7155267Y16634166D01*
X7969097Y16242550D01*
X8764456Y15813492D01*
X9539790Y15347537D01*
X9678718Y15258748D01*
X10424586Y14752679D01*
X11145531Y14213210D01*
X11840224Y13641677D01*
X12507336Y13039417D01*
X13145537Y12407768D01*
X13753498Y11748065D01*
X14329891Y11061645D01*
X14873386Y10349847D01*
X15382654Y9614006D01*
X15553589Y9349417D01*
X16014610Y8583534D01*
X16437295Y7800665D01*
X16821449Y7002192D01*
X17166879Y6189496D01*
X17473388Y5363959D01*
X17740782Y4526963D01*
X17968866Y3679889D01*
X18157446Y2824120D01*
X18306326Y1961037D01*
X18415312Y1092021D01*
X18484210Y218454D01*
X18512823Y-658281D01*
X18500958Y-1536804D01*
X18448420Y-2415732D01*
X18355013Y-3293684D01*
X18220544Y-4169278D01*
X18044817Y-5041133D01*
X17827638Y-5907866D01*
X17745385Y-6197500D01*
X17477519Y-7038232D01*
X17170108Y-7865257D01*
X16824128Y-8677122D01*
X16440555Y-9472377D01*
X16020364Y-10249569D01*
X15564532Y-11007249D01*
X15074033Y-11743965D01*
X14549844Y-12458265D01*
X13992940Y-13148698D01*
X13404296Y-13813813D01*
X12784889Y-14452160D01*
X12135693Y-15062286D01*
X11457685Y-15642741D01*
X11321166Y-15753177D01*
X10595922Y-16307452D01*
X9848357Y-16825955D01*
X9079441Y-17308174D01*
X8290142Y-17753600D01*
X7481431Y-18161721D01*
X6654279Y-18532026D01*
X5809653Y-18864005D01*
X4948525Y-19157148D01*
X4731209Y-19224175D01*
X4035223Y-19420526D01*
X3334046Y-19590102D01*
X2621303Y-19734072D01*
X1890614Y-19853608D01*
X1135604Y-19949879D01*
X388583Y-20020968D01*
X289971Y-20027033D01*
X155141Y-20032559D01*
X-9798Y-20037498D01*
X-198732Y-20041798D01*
X-405552Y-20045410D01*
X-624146Y-20048286D01*
X-848402Y-20050374D01*
X-1072209Y-20051627D01*
X-1289456Y-20051993D01*
X-1494031Y-20051424D01*
X-1679824Y-20049869D01*
X-1840721Y-20047280D01*
X-1970614Y-20043606D01*
X-2035000Y-20040643D01*
X-2964661Y-19967062D01*
X-3881701Y-19853248D01*
X-4785518Y-19699448D01*
X-5675509Y-19505909D01*
X-6551073Y-19272880D01*
X-7411608Y-19000608D01*
X-8256510Y-18689340D01*
X-9085179Y-18339325D01*
X-9897011Y-17950809D01*
X-10691405Y-17524041D01*
X-11467758Y-17059269D01*
X-12225469Y-16556740D01*
X-12963934Y-16016701D01*
X-13682552Y-15439400D01*
X-14100000Y-15078739D01*
X-14216921Y-14972445D01*
X-14356744Y-14841165D01*
X-14513481Y-14690850D01*
X-14681140Y-14527454D01*
X-14853731Y-14356928D01*
X-15025263Y-14185227D01*
X-15189747Y-14018302D01*
X-15341190Y-13862105D01*
X-15473604Y-13722591D01*
X-15569244Y-13618771D01*
X-16155361Y-12938457D01*
X-16707177Y-12234146D01*
X-17224086Y-11507127D01*
X-17705482Y-10758689D01*
X-18150759Y-9990118D01*
X-18559313Y-9202703D01*
X-18930537Y-8397734D01*
X-19263825Y-7576497D01*
X-19558573Y-6740282D01*
X-19814174Y-5890376D01*
X-20030022Y-5028068D01*
X-20205512Y-4154646D01*
X-20301843Y-3552530D01*
X-20345432Y-3236896D01*
X-20381703Y-2945570D01*
X-20411357Y-2669279D01*
X-20435098Y-2398751D01*
X-20453630Y-2124714D01*
X-20467654Y-1837896D01*
X-20477873Y-1529025D01*
X-20484992Y-1188828D01*
X-20486001Y-1123328D01*
X-20486140Y-983056D01*
X-19051202Y-983056D01*
X-19021276Y-1825559D01*
X-18950945Y-2666032D01*
X-18840208Y-3502849D01*
X-18689066Y-4334380D01*
X-18497517Y-5158998D01*
X-18265562Y-5975075D01*
X-17993199Y-6780983D01*
X-17839825Y-7184791D01*
X-17504961Y-7977016D01*
X-17133224Y-8749257D01*
X-16725610Y-9500455D01*
X-16283114Y-10229548D01*
X-15806731Y-10935475D01*
X-15297458Y-11617177D01*
X-14756290Y-12273592D01*
X-14184223Y-12903660D01*
X-13582252Y-13506321D01*
X-12951373Y-14080512D01*
X-12292582Y-14625175D01*
X-11606874Y-15139247D01*
X-10895246Y-15621669D01*
X-10158692Y-16071380D01*
X-9398208Y-16487318D01*
X-8854685Y-16756617D01*
X-8073099Y-17104533D01*
X-7272954Y-17415071D01*
X-6456655Y-17687631D01*
X-5626609Y-17921611D01*
X-4785223Y-18116411D01*
X-3934901Y-18271430D01*
X-3078051Y-18386067D01*
X-2217078Y-18459722D01*
X-1982084Y-18472608D01*
X-1864231Y-18478378D01*
X-1759410Y-18483668D01*
X-1675763Y-18488057D01*
X-1621430Y-18491120D01*
X-1606375Y-18492138D01*
X-1600867Y-18491003D01*
X-1595932Y-18485134D01*
X-1591539Y-18472336D01*
X-1587657Y-18450415D01*
X-1584253Y-18417176D01*
X-1581298Y-18370426D01*
X-1578759Y-18307970D01*
X-1576604Y-18227614D01*
X-1574804Y-18127163D01*
X-1573326Y-18004423D01*
X-1572138Y-17857200D01*
X-1571210Y-17683300D01*
X-1570511Y-17480528D01*
X-1570007Y-17246690D01*
X-1569670Y-16979591D01*
X-1569466Y-16677038D01*
X-1569364Y-16336835D01*
X-1569334Y-15956790D01*
X-1569334Y-13309500D01*
X-130000Y-13309500D01*
X-130000Y-18467952D01*
X-29459Y-18460544D01*
X24258Y-18456371D01*
X111163Y-18449372D01*
X222262Y-18440282D01*
X348559Y-18429836D01*
X462666Y-18420313D01*
X1329166Y-18326484D01*
X2189359Y-18190822D01*
X3042785Y-18013421D01*
X3888986Y-17794374D01*
X4632166Y-17565629D01*
X5312242Y-17323201D01*
X5997809Y-17045301D01*
X6680946Y-16735856D01*
X7353732Y-16398794D01*
X8008245Y-16038044D01*
X8636564Y-15657535D01*
X9109250Y-15345514D01*
X9819123Y-14832724D01*
X10501195Y-14288350D01*
X11154605Y-13713259D01*
X11778496Y-13108320D01*
X12372009Y-12474401D01*
X12934285Y-11812371D01*
X13464466Y-11123097D01*
X13896958Y-10504916D01*
X14355741Y-9781209D01*
X14777572Y-9037669D01*
X15161898Y-8275817D01*
X15508164Y-7497174D01*
X15815813Y-6703261D01*
X16084292Y-5895600D01*
X16313045Y-5075713D01*
X16501517Y-4245120D01*
X16649153Y-3405342D01*
X16738903Y-2715055D01*
X16762551Y-2493066D01*
X16782032Y-2293805D01*
X16797729Y-2109493D01*
X16810023Y-1932354D01*
X16819296Y-1754609D01*
X16825928Y-1568481D01*
X16830301Y-1366192D01*
X16832798Y-1139964D01*
X16833799Y-882021D01*
X16833866Y-778833D01*
X16833315Y-507427D01*
X16831406Y-270566D01*
X16827760Y-60471D01*
X16821993Y130634D01*
X16813725Y310528D01*
X16802574Y486988D01*
X16788158Y667791D01*
X16770097Y860716D01*
X16748009Y1073540D01*
X16738903Y1157390D01*
X16625251Y2001734D01*
X16470772Y2836529D01*
X16276156Y3660502D01*
X16042092Y4472385D01*
X15769271Y5270908D01*
X15458380Y6054799D01*
X15110110Y6822788D01*
X14725150Y7573606D01*
X14304188Y8305982D01*
X13847916Y9018647D01*
X13357021Y9710329D01*
X12832193Y10379758D01*
X12274122Y11025665D01*
X11683497Y11646779D01*
X11061008Y12241830D01*
X10421583Y12797752D01*
X9748295Y13328729D01*
X9049428Y13826738D01*
X8326935Y14290886D01*
X7582768Y14720283D01*
X6818884Y15114038D01*
X6037234Y15471259D01*
X5239773Y15791057D01*
X4428454Y16072539D01*
X3605232Y16314816D01*
X2772060Y16516995D01*
X1930892Y16678187D01*
X1902000Y16682965D01*
X1704860Y16713927D01*
X1492656Y16744644D01*
X1271758Y16774398D01*
X1048538Y16802468D01*
X829366Y16828134D01*
X620614Y16850677D01*
X428651Y16869377D01*
X259850Y16883513D01*
X120580Y16892367D01*
X23458Y16895228D01*
X-66500Y16895334D01*
X-66500Y8957834D01*
X6357583Y8957834D01*
X6876267Y8957782D01*
X7383916Y8957630D01*
X7878904Y8957381D01*
X8359605Y8957040D01*
X8824391Y8956610D01*
X9271636Y8956096D01*
X9699714Y8955501D01*
X10106998Y8954829D01*
X10491861Y8954085D01*
X10852676Y8953273D01*
X11187817Y8952396D01*
X11495658Y8951459D01*
X11774572Y8950466D01*
X12022932Y8949420D01*
X12239111Y8948326D01*
X12421483Y8947188D01*
X12568422Y8946009D01*
X12678300Y8944794D01*
X12749491Y8943546D01*
X12780369Y8942271D01*
X12781600Y8941959D01*
X12772180Y8922280D01*
X12744285Y8865836D01*
X12698445Y8773687D01*
X12635192Y8646893D01*
X12555059Y8486514D01*
X12458577Y8293612D01*
X12346278Y8069246D01*
X12218694Y7814476D01*
X12076358Y7530364D01*
X11919800Y7217969D01*
X11749553Y6878351D01*
X11566149Y6512572D01*
X11370120Y6121692D01*
X11161997Y5706770D01*
X10942313Y5268868D01*
X10711599Y4809045D01*
X10470388Y4328363D01*
X10219211Y3827880D01*
X9958599Y3308659D01*
X9689086Y2771758D01*
X9411203Y2218239D01*
X9125482Y1649162D01*
X8832455Y1065587D01*
X8532653Y468575D01*
X8226609Y-140814D01*
X7914854Y-761520D01*
X7597921Y-1392482D01*
X7342640Y-1900666D01*
X1903746Y-12727416D01*
X10305166Y-12738104D01*
X10305166Y-13309500D01*
X-130000Y-13309500D01*
X-1569334Y-13309500D01*
X-11983334Y-13309500D01*
X-11983334Y-12738000D01*
X-7845250Y-12738000D01*
X-7430018Y-12737920D01*
X-7026225Y-12737685D01*
X-6635898Y-12737304D01*
X-6261064Y-12736783D01*
X-5903748Y-12736131D01*
X-5565977Y-12735356D01*
X-5249778Y-12734465D01*
X-4957177Y-12733466D01*
X-4690199Y-12732367D01*
X-4450872Y-12731175D01*
X-4241222Y-12729899D01*
X-4063275Y-12728546D01*
X-3919057Y-12727124D01*
X-3810595Y-12725640D01*
X-3739915Y-12724103D01*
X-3709044Y-12722520D01*
X-3707783Y-12722125D01*
X-3717248Y-12702453D01*
X-3745217Y-12646029D01*
X-3791155Y-12553912D01*
X-3854532Y-12427163D01*
X-3934813Y-12266840D01*
X-4031467Y-12074005D01*
X-4143960Y-11849716D01*
X-4271760Y-11595033D01*
X-4414335Y-11311017D01*
X-4571152Y-10998726D01*
X-4741677Y-10659222D01*
X-4925379Y-10293563D01*
X-5121725Y-9902809D01*
X-5330182Y-9488020D01*
X-5550218Y-9050256D01*
X-5781300Y-8590577D01*
X-6022894Y-8110043D01*
X-6274470Y-7609713D01*
X-6535493Y-7090647D01*
X-6805432Y-6553904D01*
X-7083753Y-6000546D01*
X-7369925Y-5431631D01*
X-7663414Y-4848219D01*
X-7963687Y-4251370D01*
X-8270213Y-3642144D01*
X-8582458Y-3021601D01*
X-8899890Y-2390800D01*
X-9157206Y-1879500D01*
X-14307740Y8354584D01*
X-9730996Y8354584D01*
X-7584870Y4227084D01*
X-5438745Y99584D01*
X-5469833Y-5266166D01*
X-2903036Y-5266166D01*
X-2688957Y-5694791D01*
X-2645129Y-5782337D01*
X-2584188Y-5903756D01*
X-2508106Y-6055131D01*
X-2418855Y-6232547D01*
X-2318405Y-6432090D01*
X-2208730Y-6649843D01*
X-2091800Y-6881892D01*
X-1969587Y-7124320D01*
X-1844063Y-7373213D01*
X-1717200Y-7624655D01*
X-1691255Y-7676064D01*
X-907631Y-9228711D01*
X89726Y-7247809D01*
X1087083Y-5266908D01*
X3727539Y-5266166D01*
X3721210Y-2488041D01*
X3714882Y290084D01*
X5809706Y4322334D01*
X7904529Y8354584D01*
X3495681Y8359925D01*
X2983572Y8360481D01*
X2434855Y8360956D01*
X1855255Y8361350D01*
X1250496Y8361664D01*
X626304Y8361898D01*
X-11597Y8362050D01*
X-657482Y8362122D01*
X-1305625Y8362114D01*
X-1950302Y8362025D01*
X-2585788Y8361855D01*
X-3206357Y8361605D01*
X-3806286Y8361274D01*
X-4379848Y8360862D01*
X-4921320Y8360370D01*
X-5322082Y8359925D01*
X-9730996Y8354584D01*
X-14307740Y8354584D01*
X-14606013Y8947250D01*
X-8119423Y8952576D01*
X-1632834Y8957902D01*
X-1632834Y16916500D01*
X-1796875Y16916465D01*
X-1896644Y16914213D01*
X-2030730Y16907891D01*
X-2191374Y16898092D01*
X-2370817Y16885411D01*
X-2561301Y16870441D01*
X-2755068Y16853778D01*
X-2944358Y16836015D01*
X-3121412Y16817747D01*
X-3199167Y16809044D01*
X-4061618Y16688547D01*
X-4914011Y16527432D01*
X-5755007Y16326344D01*
X-6583270Y16085930D01*
X-7397461Y15806837D01*
X-8196244Y15489710D01*
X-8978281Y15135197D01*
X-9742235Y14743945D01*
X-10486767Y14316599D01*
X-11210541Y13853806D01*
X-11912220Y13356213D01*
X-12590465Y12824465D01*
X-13243939Y12259211D01*
X-13871305Y11661095D01*
X-13892129Y11640222D01*
X-14494533Y11005984D01*
X-15062013Y10348161D01*
X-15594225Y9667272D01*
X-16090830Y8963835D01*
X-16551486Y8238372D01*
X-16975851Y7491401D01*
X-17363585Y6723443D01*
X-17714346Y5935016D01*
X-17836090Y5634667D01*
X-18129386Y4834536D01*
X-18382281Y4023411D01*
X-18594775Y3202919D01*
X-18766866Y2374689D01*
X-18898555Y1540349D01*
X-18989841Y701526D01*
X-19040723Y-140152D01*
X-19051202Y-983056D01*
X-20486140Y-983056D01*
X-20486653Y-468170D01*
X-20468413Y157896D01*
X-20430620Y763989D01*
X-20372615Y1359223D01*
X-20293737Y1952715D01*
X-20237963Y2300920D01*
X-20065448Y3192567D01*
X-19853536Y4068818D01*
X-19602415Y4929276D01*
X-19312277Y5773541D01*
X-18983310Y6601215D01*
X-18615706Y7411899D01*
X-18209653Y8205194D01*
X-17765343Y8980703D01*
X-17282964Y9738027D01*
X-16762708Y10476766D01*
X-16204764Y11196523D01*
X-15727884Y11762417D01*
X-15552403Y11957865D01*
X-15350465Y12173599D01*
X-15128516Y12403269D01*
X-14893002Y12640526D01*
X-14650370Y12879019D01*
X-14407066Y13112399D01*
X-14169536Y13334316D01*
X-13944227Y13538421D01*
X-13771917Y13689067D01*
X-13326942Y14057123D01*
X-12851314Y14425691D01*
X-12355890Y14786981D01*
X-11851529Y15133201D01*
X-11349089Y15456559D01*
X-11083750Y15618113D01*
X-10292009Y16065517D01*
X-9482196Y16474856D01*
X-8655612Y16845708D01*
X-7813556Y17177652D01*
X-6957329Y17470264D01*
X-6088230Y17723121D01*
X-5207559Y17935802D01*
X-4316616Y18107883D01*
X-3416701Y18238941D01*
X-2828750Y18301822D01*
X-2263737Y18344055D01*
X-1672878Y18370115D01*
X-1067720Y18380064D01*
X-459809Y18373962D01*
G37*
X-459809Y18373962D02*
X139307Y18351871D01*
X718082Y18313851D01*
X1071802Y18281258D01*
X1971418Y18167017D01*
X2863441Y18011514D01*
X3746316Y17815295D01*
X4618491Y17578905D01*
X5478410Y17302889D01*
X6324520Y16987795D01*
X7155267Y16634166D01*
X7969097Y16242550D01*
X8764456Y15813492D01*
X9539790Y15347537D01*
X9678718Y15258748D01*
X10424586Y14752679D01*
X11145531Y14213210D01*
X11840224Y13641677D01*
X12507336Y13039417D01*
X13145537Y12407768D01*
X13753498Y11748065D01*
X14329891Y11061645D01*
X14873386Y10349847D01*
X15382654Y9614006D01*
X15553589Y9349417D01*
X16014610Y8583534D01*
X16437295Y7800665D01*
X16821449Y7002192D01*
X17166879Y6189496D01*
X17473388Y5363959D01*
X17740782Y4526963D01*
X17968866Y3679889D01*
X18157446Y2824120D01*
X18306326Y1961037D01*
X18415312Y1092021D01*
X18484210Y218454D01*
X18512823Y-658281D01*
X18500958Y-1536804D01*
X18448420Y-2415732D01*
X18355013Y-3293684D01*
X18220544Y-4169278D01*
X18044817Y-5041133D01*
X17827638Y-5907866D01*
X17745385Y-6197500D01*
X17477519Y-7038232D01*
X17170108Y-7865257D01*
X16824128Y-8677122D01*
X16440555Y-9472377D01*
X16020364Y-10249569D01*
X15564532Y-11007249D01*
X15074033Y-11743965D01*
X14549844Y-12458265D01*
X13992940Y-13148698D01*
X13404296Y-13813813D01*
X12784889Y-14452160D01*
X12135693Y-15062286D01*
X11457685Y-15642741D01*
X11321166Y-15753177D01*
X10595922Y-16307452D01*
X9848357Y-16825955D01*
X9079441Y-17308174D01*
X8290142Y-17753600D01*
X7481431Y-18161721D01*
X6654279Y-18532026D01*
X5809653Y-18864005D01*
X4948525Y-19157148D01*
X4731209Y-19224175D01*
X4035223Y-19420526D01*
X3334046Y-19590102D01*
X2621303Y-19734072D01*
X1890614Y-19853608D01*
X1135604Y-19949879D01*
X388583Y-20020968D01*
X289971Y-20027033D01*
X155141Y-20032559D01*
X-9798Y-20037498D01*
X-198732Y-20041798D01*
X-405552Y-20045410D01*
X-624146Y-20048286D01*
X-848402Y-20050374D01*
X-1072209Y-20051627D01*
X-1289456Y-20051993D01*
X-1494031Y-20051424D01*
X-1679824Y-20049869D01*
X-1840721Y-20047280D01*
X-1970614Y-20043606D01*
X-2035000Y-20040643D01*
X-2964661Y-19967062D01*
X-3881701Y-19853248D01*
X-4785518Y-19699448D01*
X-5675509Y-19505909D01*
X-6551073Y-19272880D01*
X-7411608Y-19000608D01*
X-8256510Y-18689340D01*
X-9085179Y-18339325D01*
X-9897011Y-17950809D01*
X-10691405Y-17524041D01*
X-11467758Y-17059269D01*
X-12225469Y-16556740D01*
X-12963934Y-16016701D01*
X-13682552Y-15439400D01*
X-14100000Y-15078739D01*
X-14216921Y-14972445D01*
X-14356744Y-14841165D01*
X-14513481Y-14690850D01*
X-14681140Y-14527454D01*
X-14853731Y-14356928D01*
X-15025263Y-14185227D01*
X-15189747Y-14018302D01*
X-15341190Y-13862105D01*
X-15473604Y-13722591D01*
X-15569244Y-13618771D01*
X-16155361Y-12938457D01*
X-16707177Y-12234146D01*
X-17224086Y-11507127D01*
X-17705482Y-10758689D01*
X-18150759Y-9990118D01*
X-18559313Y-9202703D01*
X-18930537Y-8397734D01*
X-19263825Y-7576497D01*
X-19558573Y-6740282D01*
X-19814174Y-5890376D01*
X-20030022Y-5028068D01*
X-20205512Y-4154646D01*
X-20301843Y-3552530D01*
X-20345432Y-3236896D01*
X-20381703Y-2945570D01*
X-20411357Y-2669279D01*
X-20435098Y-2398751D01*
X-20453630Y-2124714D01*
X-20467654Y-1837896D01*
X-20477873Y-1529025D01*
X-20484992Y-1188828D01*
X-20486001Y-1123328D01*
X-20486140Y-983056D01*
X-19051202Y-983056D01*
X-19021276Y-1825559D01*
X-18950945Y-2666032D01*
X-18840208Y-3502849D01*
X-18689066Y-4334380D01*
X-18497517Y-5158998D01*
X-18265562Y-5975075D01*
X-17993199Y-6780983D01*
X-17839825Y-7184791D01*
X-17504961Y-7977016D01*
X-17133224Y-8749257D01*
X-16725610Y-9500455D01*
X-16283114Y-10229548D01*
X-15806731Y-10935475D01*
X-15297458Y-11617177D01*
X-14756290Y-12273592D01*
X-14184223Y-12903660D01*
X-13582252Y-13506321D01*
X-12951373Y-14080512D01*
X-12292582Y-14625175D01*
X-11606874Y-15139247D01*
X-10895246Y-15621669D01*
X-10158692Y-16071380D01*
X-9398208Y-16487318D01*
X-8854685Y-16756617D01*
X-8073099Y-17104533D01*
X-7272954Y-17415071D01*
X-6456655Y-17687631D01*
X-5626609Y-17921611D01*
X-4785223Y-18116411D01*
X-3934901Y-18271430D01*
X-3078051Y-18386067D01*
X-2217078Y-18459722D01*
X-1982084Y-18472608D01*
X-1864231Y-18478378D01*
X-1759410Y-18483668D01*
X-1675763Y-18488057D01*
X-1621430Y-18491120D01*
X-1606375Y-18492138D01*
X-1600867Y-18491003D01*
X-1595932Y-18485134D01*
X-1591539Y-18472336D01*
X-1587657Y-18450415D01*
X-1584253Y-18417176D01*
X-1581298Y-18370426D01*
X-1578759Y-18307970D01*
X-1576604Y-18227614D01*
X-1574804Y-18127163D01*
X-1573326Y-18004423D01*
X-1572138Y-17857200D01*
X-1571210Y-17683300D01*
X-1570511Y-17480528D01*
X-1570007Y-17246690D01*
X-1569670Y-16979591D01*
X-1569466Y-16677038D01*
X-1569364Y-16336835D01*
X-1569334Y-15956790D01*
X-1569334Y-13309500D01*
X-130000Y-13309500D01*
X-130000Y-18467952D01*
X-29459Y-18460544D01*
X24258Y-18456371D01*
X111163Y-18449372D01*
X222262Y-18440282D01*
X348559Y-18429836D01*
X462666Y-18420313D01*
X1329166Y-18326484D01*
X2189359Y-18190822D01*
X3042785Y-18013421D01*
X3888986Y-17794374D01*
X4632166Y-17565629D01*
X5312242Y-17323201D01*
X5997809Y-17045301D01*
X6680946Y-16735856D01*
X7353732Y-16398794D01*
X8008245Y-16038044D01*
X8636564Y-15657535D01*
X9109250Y-15345514D01*
X9819123Y-14832724D01*
X10501195Y-14288350D01*
X11154605Y-13713259D01*
X11778496Y-13108320D01*
X12372009Y-12474401D01*
X12934285Y-11812371D01*
X13464466Y-11123097D01*
X13896958Y-10504916D01*
X14355741Y-9781209D01*
X14777572Y-9037669D01*
X15161898Y-8275817D01*
X15508164Y-7497174D01*
X15815813Y-6703261D01*
X16084292Y-5895600D01*
X16313045Y-5075713D01*
X16501517Y-4245120D01*
X16649153Y-3405342D01*
X16738903Y-2715055D01*
X16762551Y-2493066D01*
X16782032Y-2293805D01*
X16797729Y-2109493D01*
X16810023Y-1932354D01*
X16819296Y-1754609D01*
X16825928Y-1568481D01*
X16830301Y-1366192D01*
X16832798Y-1139964D01*
X16833799Y-882021D01*
X16833866Y-778833D01*
X16833315Y-507427D01*
X16831406Y-270566D01*
X16827760Y-60471D01*
X16821993Y130634D01*
X16813725Y310528D01*
X16802574Y486988D01*
X16788158Y667791D01*
X16770097Y860716D01*
X16748009Y1073540D01*
X16738903Y1157390D01*
X16625251Y2001734D01*
X16470772Y2836529D01*
X16276156Y3660502D01*
X16042092Y4472385D01*
X15769271Y5270908D01*
X15458380Y6054799D01*
X15110110Y6822788D01*
X14725150Y7573606D01*
X14304188Y8305982D01*
X13847916Y9018647D01*
X13357021Y9710329D01*
X12832193Y10379758D01*
X12274122Y11025665D01*
X11683497Y11646779D01*
X11061008Y12241830D01*
X10421583Y12797752D01*
X9748295Y13328729D01*
X9049428Y13826738D01*
X8326935Y14290886D01*
X7582768Y14720283D01*
X6818884Y15114038D01*
X6037234Y15471259D01*
X5239773Y15791057D01*
X4428454Y16072539D01*
X3605232Y16314816D01*
X2772060Y16516995D01*
X1930892Y16678187D01*
X1902000Y16682965D01*
X1704860Y16713927D01*
X1492656Y16744644D01*
X1271758Y16774398D01*
X1048538Y16802468D01*
X829366Y16828134D01*
X620614Y16850677D01*
X428651Y16869377D01*
X259850Y16883513D01*
X120580Y16892367D01*
X23458Y16895228D01*
X-66500Y16895334D01*
X-66500Y8957834D01*
X6357583Y8957834D01*
X6876267Y8957782D01*
X7383916Y8957630D01*
X7878904Y8957381D01*
X8359605Y8957040D01*
X8824391Y8956610D01*
X9271636Y8956096D01*
X9699714Y8955501D01*
X10106998Y8954829D01*
X10491861Y8954085D01*
X10852676Y8953273D01*
X11187817Y8952396D01*
X11495658Y8951459D01*
X11774572Y8950466D01*
X12022932Y8949420D01*
X12239111Y8948326D01*
X12421483Y8947188D01*
X12568422Y8946009D01*
X12678300Y8944794D01*
X12749491Y8943546D01*
X12780369Y8942271D01*
X12781600Y8941959D01*
X12772180Y8922280D01*
X12744285Y8865836D01*
X12698445Y8773687D01*
X12635192Y8646893D01*
X12555059Y8486514D01*
X12458577Y8293612D01*
X12346278Y8069246D01*
X12218694Y7814476D01*
X12076358Y7530364D01*
X11919800Y7217969D01*
X11749553Y6878351D01*
X11566149Y6512572D01*
X11370120Y6121692D01*
X11161997Y5706770D01*
X10942313Y5268868D01*
X10711599Y4809045D01*
X10470388Y4328363D01*
X10219211Y3827880D01*
X9958599Y3308659D01*
X9689086Y2771758D01*
X9411203Y2218239D01*
X9125482Y1649162D01*
X8832455Y1065587D01*
X8532653Y468575D01*
X8226609Y-140814D01*
X7914854Y-761520D01*
X7597921Y-1392482D01*
X7342640Y-1900666D01*
X1903746Y-12727416D01*
X10305166Y-12738104D01*
X10305166Y-13309500D01*
X-130000Y-13309500D01*
X-1569334Y-13309500D01*
X-11983334Y-13309500D01*
X-11983334Y-12738000D01*
X-7845250Y-12738000D01*
X-7430018Y-12737920D01*
X-7026225Y-12737685D01*
X-6635898Y-12737304D01*
X-6261064Y-12736783D01*
X-5903748Y-12736131D01*
X-5565977Y-12735356D01*
X-5249778Y-12734465D01*
X-4957177Y-12733466D01*
X-4690199Y-12732367D01*
X-4450872Y-12731175D01*
X-4241222Y-12729899D01*
X-4063275Y-12728546D01*
X-3919057Y-12727124D01*
X-3810595Y-12725640D01*
X-3739915Y-12724103D01*
X-3709044Y-12722520D01*
X-3707783Y-12722125D01*
X-3717248Y-12702453D01*
X-3745217Y-12646029D01*
X-3791155Y-12553912D01*
X-3854532Y-12427163D01*
X-3934813Y-12266840D01*
X-4031467Y-12074005D01*
X-4143960Y-11849716D01*
X-4271760Y-11595033D01*
X-4414335Y-11311017D01*
X-4571152Y-10998726D01*
X-4741677Y-10659222D01*
X-4925379Y-10293563D01*
X-5121725Y-9902809D01*
X-5330182Y-9488020D01*
X-5550218Y-9050256D01*
X-5781300Y-8590577D01*
X-6022894Y-8110043D01*
X-6274470Y-7609713D01*
X-6535493Y-7090647D01*
X-6805432Y-6553904D01*
X-7083753Y-6000546D01*
X-7369925Y-5431631D01*
X-7663414Y-4848219D01*
X-7963687Y-4251370D01*
X-8270213Y-3642144D01*
X-8582458Y-3021601D01*
X-8899890Y-2390800D01*
X-9157206Y-1879500D01*
X-14307740Y8354584D01*
X-9730996Y8354584D01*
X-7584870Y4227084D01*
X-5438745Y99584D01*
X-5469833Y-5266166D01*
X-2903036Y-5266166D01*
X-2688957Y-5694791D01*
X-2645129Y-5782337D01*
X-2584188Y-5903756D01*
X-2508106Y-6055131D01*
X-2418855Y-6232547D01*
X-2318405Y-6432090D01*
X-2208730Y-6649843D01*
X-2091800Y-6881892D01*
X-1969587Y-7124320D01*
X-1844063Y-7373213D01*
X-1717200Y-7624655D01*
X-1691255Y-7676064D01*
X-907631Y-9228711D01*
X89726Y-7247809D01*
X1087083Y-5266908D01*
X3727539Y-5266166D01*
X3721210Y-2488041D01*
X3714882Y290084D01*
X5809706Y4322334D01*
X7904529Y8354584D01*
X3495681Y8359925D01*
X2983572Y8360481D01*
X2434855Y8360956D01*
X1855255Y8361350D01*
X1250496Y8361664D01*
X626304Y8361898D01*
X-11597Y8362050D01*
X-657482Y8362122D01*
X-1305625Y8362114D01*
X-1950302Y8362025D01*
X-2585788Y8361855D01*
X-3206357Y8361605D01*
X-3806286Y8361274D01*
X-4379848Y8360862D01*
X-4921320Y8360370D01*
X-5322082Y8359925D01*
X-9730996Y8354584D01*
X-14307740Y8354584D01*
X-14606013Y8947250D01*
X-8119423Y8952576D01*
X-1632834Y8957902D01*
X-1632834Y16916500D01*
X-1796875Y16916465D01*
X-1896644Y16914213D01*
X-2030730Y16907891D01*
X-2191374Y16898092D01*
X-2370817Y16885411D01*
X-2561301Y16870441D01*
X-2755068Y16853778D01*
X-2944358Y16836015D01*
X-3121412Y16817747D01*
X-3199167Y16809044D01*
X-4061618Y16688547D01*
X-4914011Y16527432D01*
X-5755007Y16326344D01*
X-6583270Y16085930D01*
X-7397461Y15806837D01*
X-8196244Y15489710D01*
X-8978281Y15135197D01*
X-9742235Y14743945D01*
X-10486767Y14316599D01*
X-11210541Y13853806D01*
X-11912220Y13356213D01*
X-12590465Y12824465D01*
X-13243939Y12259211D01*
X-13871305Y11661095D01*
X-13892129Y11640222D01*
X-14494533Y11005984D01*
X-15062013Y10348161D01*
X-15594225Y9667272D01*
X-16090830Y8963835D01*
X-16551486Y8238372D01*
X-16975851Y7491401D01*
X-17363585Y6723443D01*
X-17714346Y5935016D01*
X-17836090Y5634667D01*
X-18129386Y4834536D01*
X-18382281Y4023411D01*
X-18594775Y3202919D01*
X-18766866Y2374689D01*
X-18898555Y1540349D01*
X-18989841Y701526D01*
X-19040723Y-140152D01*
X-19051202Y-983056D01*
X-20486140Y-983056D01*
X-20486653Y-468170D01*
X-20468413Y157896D01*
X-20430620Y763989D01*
X-20372615Y1359223D01*
X-20293737Y1952715D01*
X-20237963Y2300920D01*
X-20065448Y3192567D01*
X-19853536Y4068818D01*
X-19602415Y4929276D01*
X-19312277Y5773541D01*
X-18983310Y6601215D01*
X-18615706Y7411899D01*
X-18209653Y8205194D01*
X-17765343Y8980703D01*
X-17282964Y9738027D01*
X-16762708Y10476766D01*
X-16204764Y11196523D01*
X-15727884Y11762417D01*
X-15552403Y11957865D01*
X-15350465Y12173599D01*
X-15128516Y12403269D01*
X-14893002Y12640526D01*
X-14650370Y12879019D01*
X-14407066Y13112399D01*
X-14169536Y13334316D01*
X-13944227Y13538421D01*
X-13771917Y13689067D01*
X-13326942Y14057123D01*
X-12851314Y14425691D01*
X-12355890Y14786981D01*
X-11851529Y15133201D01*
X-11349089Y15456559D01*
X-11083750Y15618113D01*
X-10292009Y16065517D01*
X-9482196Y16474856D01*
X-8655612Y16845708D01*
X-7813556Y17177652D01*
X-6957329Y17470264D01*
X-6088230Y17723121D01*
X-5207559Y17935802D01*
X-4316616Y18107883D01*
X-3416701Y18238941D01*
X-2828750Y18301822D01*
X-2263737Y18344055D01*
X-1672878Y18370115D01*
X-1067720Y18380064D01*
X-459809Y18373962D01*
G36*
X-8055118Y-7478780D02*
G01*
X-7997696Y-7568216D01*
X-7950530Y-7644314D01*
X-7917575Y-7700480D01*
X-7902789Y-7730122D01*
X-7902559Y-7732947D01*
X-7922033Y-7743610D01*
X-7976586Y-7772516D01*
X-8063742Y-7818373D01*
X-8181025Y-7879886D01*
X-8325959Y-7955762D01*
X-8496069Y-8044706D01*
X-8688879Y-8145424D01*
X-8901912Y-8256622D01*
X-9132693Y-8377007D01*
X-9378746Y-8505284D01*
X-9637596Y-8640160D01*
X-9867556Y-8759925D01*
X-10135303Y-8899356D01*
X-10392321Y-9033235D01*
X-10636140Y-9160272D01*
X-10864290Y-9279179D01*
X-11074300Y-9388668D01*
X-11263701Y-9487450D01*
X-11430022Y-9574236D01*
X-11570794Y-9647738D01*
X-11683547Y-9706669D01*
X-11765810Y-9749738D01*
X-11815113Y-9775658D01*
X-11829269Y-9783250D01*
X-11820809Y-9802177D01*
X-11794566Y-9853269D01*
X-11753161Y-9931603D01*
X-11699217Y-10032252D01*
X-11635357Y-10150292D01*
X-11569978Y-10270240D01*
X-11499048Y-10400238D01*
X-11435325Y-10517615D01*
X-11381488Y-10617390D01*
X-11340214Y-10694578D01*
X-11314183Y-10744199D01*
X-11306000Y-10761207D01*
X-11312253Y-10763670D01*
X-11332710Y-10765445D01*
X-11369922Y-10766493D01*
X-11426437Y-10766774D01*
X-11504805Y-10766248D01*
X-11607575Y-10764874D01*
X-11737298Y-10762613D01*
X-11896523Y-10759424D01*
X-12087798Y-10755268D01*
X-12313674Y-10750105D01*
X-12576700Y-10743895D01*
X-12879426Y-10736597D01*
X-12888229Y-10736383D01*
X-13100923Y-10731094D01*
X-13300940Y-10725884D01*
X-13484263Y-10720875D01*
X-13646877Y-10716187D01*
X-13784768Y-10711941D01*
X-13893919Y-10708258D01*
X-13970315Y-10705260D01*
X-14009941Y-10703066D01*
X-14014534Y-10702465D01*
X-14006933Y-10684004D01*
X-13979086Y-10633316D01*
X-13933233Y-10554040D01*
X-13871616Y-10449815D01*
X-13796474Y-10324280D01*
X-13710050Y-10181075D01*
X-13614583Y-10023838D01*
X-13512316Y-9856210D01*
X-13405488Y-9681830D01*
X-13296341Y-9504336D01*
X-13187116Y-9327368D01*
X-13080054Y-9154565D01*
X-12977395Y-8989567D01*
X-12881380Y-8836012D01*
X-12794251Y-8697541D01*
X-12718249Y-8577791D01*
X-12655613Y-8480404D01*
X-12608586Y-8409017D01*
X-12579408Y-8367270D01*
X-12570648Y-8357601D01*
X-12557240Y-8375439D01*
X-12527857Y-8426204D01*
X-12485201Y-8504831D01*
X-12431978Y-8606259D01*
X-12370891Y-8725424D01*
X-12316866Y-8832750D01*
X-12251438Y-8962717D01*
X-12191813Y-9079172D01*
X-12140672Y-9177040D01*
X-12100694Y-9251246D01*
X-12074560Y-9296716D01*
X-12065343Y-9309000D01*
X-12045732Y-9299205D01*
X-11991925Y-9270914D01*
X-11906964Y-9225766D01*
X-11793891Y-9165399D01*
X-11655746Y-9091454D01*
X-11495573Y-9005568D01*
X-11316414Y-8909381D01*
X-11121309Y-8804532D01*
X-10913301Y-8692661D01*
X-10695432Y-8575406D01*
X-10470744Y-8454406D01*
X-10242278Y-8331300D01*
X-10013076Y-8207728D01*
X-9786181Y-8085329D01*
X-9564633Y-7965741D01*
X-9351476Y-7850604D01*
X-9149751Y-7741557D01*
X-8962499Y-7640239D01*
X-8792763Y-7548289D01*
X-8643584Y-7467346D01*
X-8518005Y-7399049D01*
X-8419067Y-7345037D01*
X-8349812Y-7306950D01*
X-8347947Y-7305917D01*
X-8215644Y-7232581D01*
X-8055118Y-7478780D01*
G37*
X-8055118Y-7478780D02*
X-7997696Y-7568216D01*
X-7950530Y-7644314D01*
X-7917575Y-7700480D01*
X-7902789Y-7730122D01*
X-7902559Y-7732947D01*
X-7922033Y-7743610D01*
X-7976586Y-7772516D01*
X-8063742Y-7818373D01*
X-8181025Y-7879886D01*
X-8325959Y-7955762D01*
X-8496069Y-8044706D01*
X-8688879Y-8145424D01*
X-8901912Y-8256622D01*
X-9132693Y-8377007D01*
X-9378746Y-8505284D01*
X-9637596Y-8640160D01*
X-9867556Y-8759925D01*
X-10135303Y-8899356D01*
X-10392321Y-9033235D01*
X-10636140Y-9160272D01*
X-10864290Y-9279179D01*
X-11074300Y-9388668D01*
X-11263701Y-9487450D01*
X-11430022Y-9574236D01*
X-11570794Y-9647738D01*
X-11683547Y-9706669D01*
X-11765810Y-9749738D01*
X-11815113Y-9775658D01*
X-11829269Y-9783250D01*
X-11820809Y-9802177D01*
X-11794566Y-9853269D01*
X-11753161Y-9931603D01*
X-11699217Y-10032252D01*
X-11635357Y-10150292D01*
X-11569978Y-10270240D01*
X-11499048Y-10400238D01*
X-11435325Y-10517615D01*
X-11381488Y-10617390D01*
X-11340214Y-10694578D01*
X-11314183Y-10744199D01*
X-11306000Y-10761207D01*
X-11312253Y-10763670D01*
X-11332710Y-10765445D01*
X-11369922Y-10766493D01*
X-11426437Y-10766774D01*
X-11504805Y-10766248D01*
X-11607575Y-10764874D01*
X-11737298Y-10762613D01*
X-11896523Y-10759424D01*
X-12087798Y-10755268D01*
X-12313674Y-10750105D01*
X-12576700Y-10743895D01*
X-12879426Y-10736597D01*
X-12888229Y-10736383D01*
X-13100923Y-10731094D01*
X-13300940Y-10725884D01*
X-13484263Y-10720875D01*
X-13646877Y-10716187D01*
X-13784768Y-10711941D01*
X-13893919Y-10708258D01*
X-13970315Y-10705260D01*
X-14009941Y-10703066D01*
X-14014534Y-10702465D01*
X-14006933Y-10684004D01*
X-13979086Y-10633316D01*
X-13933233Y-10554040D01*
X-13871616Y-10449815D01*
X-13796474Y-10324280D01*
X-13710050Y-10181075D01*
X-13614583Y-10023838D01*
X-13512316Y-9856210D01*
X-13405488Y-9681830D01*
X-13296341Y-9504336D01*
X-13187116Y-9327368D01*
X-13080054Y-9154565D01*
X-12977395Y-8989567D01*
X-12881380Y-8836012D01*
X-12794251Y-8697541D01*
X-12718249Y-8577791D01*
X-12655613Y-8480404D01*
X-12608586Y-8409017D01*
X-12579408Y-8367270D01*
X-12570648Y-8357601D01*
X-12557240Y-8375439D01*
X-12527857Y-8426204D01*
X-12485201Y-8504831D01*
X-12431978Y-8606259D01*
X-12370891Y-8725424D01*
X-12316866Y-8832750D01*
X-12251438Y-8962717D01*
X-12191813Y-9079172D01*
X-12140672Y-9177040D01*
X-12100694Y-9251246D01*
X-12074560Y-9296716D01*
X-12065343Y-9309000D01*
X-12045732Y-9299205D01*
X-11991925Y-9270914D01*
X-11906964Y-9225766D01*
X-11793891Y-9165399D01*
X-11655746Y-9091454D01*
X-11495573Y-9005568D01*
X-11316414Y-8909381D01*
X-11121309Y-8804532D01*
X-10913301Y-8692661D01*
X-10695432Y-8575406D01*
X-10470744Y-8454406D01*
X-10242278Y-8331300D01*
X-10013076Y-8207728D01*
X-9786181Y-8085329D01*
X-9564633Y-7965741D01*
X-9351476Y-7850604D01*
X-9149751Y-7741557D01*
X-8962499Y-7640239D01*
X-8792763Y-7548289D01*
X-8643584Y-7467346D01*
X-8518005Y-7399049D01*
X-8419067Y-7345037D01*
X-8349812Y-7306950D01*
X-8347947Y-7305917D01*
X-8215644Y-7232581D01*
X-8055118Y-7478780D01*
G36*
X-9901112Y-4080558D02*
G01*
X-9833755Y-4186612D01*
X-9775313Y-4283155D01*
X-9729233Y-4364266D01*
X-9698964Y-4424027D01*
X-9687954Y-4456517D01*
X-9688991Y-4460127D01*
X-9710030Y-4472068D01*
X-9766114Y-4502181D01*
X-9854712Y-4549139D01*
X-9973293Y-4611619D01*
X-10119326Y-4688295D01*
X-10290279Y-4777842D01*
X-10483621Y-4878935D01*
X-10696821Y-4990250D01*
X-10927347Y-5110460D01*
X-11172669Y-5238242D01*
X-11430255Y-5372269D01*
X-11612917Y-5467230D01*
X-11878060Y-5605024D01*
X-12133124Y-5737587D01*
X-12375532Y-5863578D01*
X-12602711Y-5981658D01*
X-12812083Y-6090490D01*
X-13001074Y-6188733D01*
X-13167106Y-6275049D01*
X-13307606Y-6348099D01*
X-13419997Y-6406544D01*
X-13501702Y-6449045D01*
X-13550148Y-6474263D01*
X-13562722Y-6480826D01*
X-13575614Y-6489397D01*
X-13582352Y-6501921D01*
X-13581018Y-6522832D01*
X-13569698Y-6556560D01*
X-13546473Y-6607539D01*
X-13509428Y-6680200D01*
X-13456646Y-6778976D01*
X-13386211Y-6908299D01*
X-13346587Y-6980666D01*
X-13275908Y-7110203D01*
X-13212433Y-7227571D01*
X-13158881Y-7327655D01*
X-13117973Y-7405340D01*
X-13092430Y-7455512D01*
X-13084824Y-7472791D01*
X-13091053Y-7477190D01*
X-13111896Y-7480638D01*
X-13149826Y-7483111D01*
X-13207321Y-7484581D01*
X-13286854Y-7485023D01*
X-13390902Y-7484411D01*
X-13521939Y-7482719D01*
X-13682440Y-7479922D01*
X-13874882Y-7475993D01*
X-14101738Y-7470907D01*
X-14365485Y-7464638D01*
X-14668597Y-7457160D01*
X-14731402Y-7455586D01*
X-14939497Y-7450226D01*
X-15134395Y-7444947D01*
X-15312072Y-7439875D01*
X-15468505Y-7435137D01*
X-15599670Y-7430862D01*
X-15701545Y-7427175D01*
X-15770105Y-7424205D01*
X-15801328Y-7422078D01*
X-15802818Y-7421709D01*
X-15793358Y-7402705D01*
X-15763554Y-7351557D01*
X-15715681Y-7271903D01*
X-15652012Y-7167383D01*
X-15574822Y-7041638D01*
X-15486386Y-6898307D01*
X-15388976Y-6741029D01*
X-15284869Y-6573444D01*
X-15176336Y-6399192D01*
X-15065654Y-6221912D01*
X-14955096Y-6045245D01*
X-14846936Y-5872830D01*
X-14743449Y-5708306D01*
X-14646908Y-5555314D01*
X-14559588Y-5417493D01*
X-14483764Y-5298482D01*
X-14421708Y-5201922D01*
X-14375697Y-5131452D01*
X-14348003Y-5090712D01*
X-14340789Y-5081846D01*
X-14326594Y-5098245D01*
X-14296520Y-5147686D01*
X-14253291Y-5225179D01*
X-14199630Y-5325739D01*
X-14138261Y-5444379D01*
X-14083040Y-5553774D01*
X-14004318Y-5709861D01*
X-13941566Y-5830560D01*
X-13893017Y-5918917D01*
X-13856905Y-5977983D01*
X-13831463Y-6010805D01*
X-13814923Y-6020432D01*
X-13812830Y-6019967D01*
X-13790221Y-6008412D01*
X-13732914Y-5978046D01*
X-13643432Y-5930226D01*
X-13524296Y-5866313D01*
X-13378028Y-5787665D01*
X-13207151Y-5695640D01*
X-13014186Y-5591597D01*
X-12801654Y-5476895D01*
X-12572079Y-5352893D01*
X-12327981Y-5220950D01*
X-12071882Y-5082424D01*
X-11883706Y-4980578D01*
X-11621204Y-4838705D01*
X-11369226Y-4702972D01*
X-11130256Y-4574692D01*
X-10906779Y-4455179D01*
X-10701278Y-4345747D01*
X-10516240Y-4247710D01*
X-10354147Y-4162380D01*
X-10217486Y-4091071D01*
X-10108740Y-4035097D01*
X-10030393Y-3995772D01*
X-9984932Y-3974409D01*
X-9973936Y-3970912D01*
X-9901112Y-4080558D01*
G37*
X-9901112Y-4080558D02*
X-9833755Y-4186612D01*
X-9775313Y-4283155D01*
X-9729233Y-4364266D01*
X-9698964Y-4424027D01*
X-9687954Y-4456517D01*
X-9688991Y-4460127D01*
X-9710030Y-4472068D01*
X-9766114Y-4502181D01*
X-9854712Y-4549139D01*
X-9973293Y-4611619D01*
X-10119326Y-4688295D01*
X-10290279Y-4777842D01*
X-10483621Y-4878935D01*
X-10696821Y-4990250D01*
X-10927347Y-5110460D01*
X-11172669Y-5238242D01*
X-11430255Y-5372269D01*
X-11612917Y-5467230D01*
X-11878060Y-5605024D01*
X-12133124Y-5737587D01*
X-12375532Y-5863578D01*
X-12602711Y-5981658D01*
X-12812083Y-6090490D01*
X-13001074Y-6188733D01*
X-13167106Y-6275049D01*
X-13307606Y-6348099D01*
X-13419997Y-6406544D01*
X-13501702Y-6449045D01*
X-13550148Y-6474263D01*
X-13562722Y-6480826D01*
X-13575614Y-6489397D01*
X-13582352Y-6501921D01*
X-13581018Y-6522832D01*
X-13569698Y-6556560D01*
X-13546473Y-6607539D01*
X-13509428Y-6680200D01*
X-13456646Y-6778976D01*
X-13386211Y-6908299D01*
X-13346587Y-6980666D01*
X-13275908Y-7110203D01*
X-13212433Y-7227571D01*
X-13158881Y-7327655D01*
X-13117973Y-7405340D01*
X-13092430Y-7455512D01*
X-13084824Y-7472791D01*
X-13091053Y-7477190D01*
X-13111896Y-7480638D01*
X-13149826Y-7483111D01*
X-13207321Y-7484581D01*
X-13286854Y-7485023D01*
X-13390902Y-7484411D01*
X-13521939Y-7482719D01*
X-13682440Y-7479922D01*
X-13874882Y-7475993D01*
X-14101738Y-7470907D01*
X-14365485Y-7464638D01*
X-14668597Y-7457160D01*
X-14731402Y-7455586D01*
X-14939497Y-7450226D01*
X-15134395Y-7444947D01*
X-15312072Y-7439875D01*
X-15468505Y-7435137D01*
X-15599670Y-7430862D01*
X-15701545Y-7427175D01*
X-15770105Y-7424205D01*
X-15801328Y-7422078D01*
X-15802818Y-7421709D01*
X-15793358Y-7402705D01*
X-15763554Y-7351557D01*
X-15715681Y-7271903D01*
X-15652012Y-7167383D01*
X-15574822Y-7041638D01*
X-15486386Y-6898307D01*
X-15388976Y-6741029D01*
X-15284869Y-6573444D01*
X-15176336Y-6399192D01*
X-15065654Y-6221912D01*
X-14955096Y-6045245D01*
X-14846936Y-5872830D01*
X-14743449Y-5708306D01*
X-14646908Y-5555314D01*
X-14559588Y-5417493D01*
X-14483764Y-5298482D01*
X-14421708Y-5201922D01*
X-14375697Y-5131452D01*
X-14348003Y-5090712D01*
X-14340789Y-5081846D01*
X-14326594Y-5098245D01*
X-14296520Y-5147686D01*
X-14253291Y-5225179D01*
X-14199630Y-5325739D01*
X-14138261Y-5444379D01*
X-14083040Y-5553774D01*
X-14004318Y-5709861D01*
X-13941566Y-5830560D01*
X-13893017Y-5918917D01*
X-13856905Y-5977983D01*
X-13831463Y-6010805D01*
X-13814923Y-6020432D01*
X-13812830Y-6019967D01*
X-13790221Y-6008412D01*
X-13732914Y-5978046D01*
X-13643432Y-5930226D01*
X-13524296Y-5866313D01*
X-13378028Y-5787665D01*
X-13207151Y-5695640D01*
X-13014186Y-5591597D01*
X-12801654Y-5476895D01*
X-12572079Y-5352893D01*
X-12327981Y-5220950D01*
X-12071882Y-5082424D01*
X-11883706Y-4980578D01*
X-11621204Y-4838705D01*
X-11369226Y-4702972D01*
X-11130256Y-4574692D01*
X-10906779Y-4455179D01*
X-10701278Y-4345747D01*
X-10516240Y-4247710D01*
X-10354147Y-4162380D01*
X-10217486Y-4091071D01*
X-10108740Y-4035097D01*
X-10030393Y-3995772D01*
X-9984932Y-3974409D01*
X-9973936Y-3970912D01*
X-9901112Y-4080558D01*
G36*
X-2902834Y1655334D02*
G01*
X1203500Y1655334D01*
X1203500Y7201000D01*
X3510666Y7201000D01*
X3510666Y-5075666D01*
X1203500Y-5075666D01*
X1203500Y-143833D01*
X-2902657Y-143833D01*
X-2913417Y-5065083D01*
X-4072292Y-5070555D01*
X-5231167Y-5076028D01*
X-5231167Y7201000D01*
X-2902834Y7201000D01*
X-2902834Y1655334D01*
G37*
X-2902834Y1655334D02*
X1203500Y1655334D01*
X1203500Y7201000D01*
X3510666Y7201000D01*
X3510666Y-5075666D01*
X1203500Y-5075666D01*
X1203500Y-143833D01*
X-2902657Y-143833D01*
X-2913417Y-5065083D01*
X-4072292Y-5070555D01*
X-5231167Y-5076028D01*
X-5231167Y7201000D01*
X-2902834Y7201000D01*
X-2902834Y1655334D01*
G36*
X-6431757Y8176964D02*
G01*
X-6171029Y8135391D01*
X-6018484Y8098727D01*
X-5908896Y8070008D01*
X-5829579Y8047183D01*
X-5775688Y8023227D01*
X-5742375Y7991117D01*
X-5724793Y7943827D01*
X-5718095Y7874334D01*
X-5717435Y7775613D01*
X-5718000Y7663270D01*
X-5718467Y7526293D01*
X-5721937Y7427860D01*
X-5731513Y7364182D01*
X-5750302Y7331469D01*
X-5781406Y7325932D01*
X-5827931Y7343780D01*
X-5892981Y7381226D01*
X-5930268Y7404166D01*
X-6097343Y7492454D01*
X-6261682Y7551273D01*
X-6418660Y7580615D01*
X-6563653Y7580468D01*
X-6692036Y7550822D01*
X-6799185Y7491665D01*
X-6878272Y7406357D01*
X-6908638Y7354471D01*
X-6925874Y7303842D01*
X-6933467Y7239314D01*
X-6934945Y7160213D01*
X-6923192Y7024479D01*
X-6885720Y6894875D01*
X-6818841Y6761885D01*
X-6729522Y6630175D01*
X-6655549Y6539035D01*
X-6555137Y6427264D01*
X-6434532Y6301139D01*
X-6299976Y6166939D01*
X-6157715Y6030940D01*
X-6013991Y5899419D01*
X-5924375Y5820713D01*
X-5654500Y5587990D01*
X-5654500Y4936167D01*
X-7834667Y4936167D01*
X-7834667Y5677000D01*
X-6627475Y5677000D01*
X-6845592Y5865307D01*
X-7066280Y6065333D01*
X-7250133Y6253396D01*
X-7399728Y6432978D01*
X-7517645Y6607563D01*
X-7606463Y6780634D01*
X-7668759Y6955674D01*
X-7677779Y6989319D01*
X-7699975Y7126060D01*
X-7705008Y7281520D01*
X-7693684Y7439243D01*
X-7666812Y7582773D01*
X-7645310Y7650721D01*
X-7582784Y7770137D01*
X-7491766Y7887620D01*
X-7384404Y7989388D01*
X-7291517Y8052083D01*
X-7112620Y8126665D01*
X-6906837Y8172443D01*
X-6678455Y8189262D01*
X-6431757Y8176964D01*
G37*
X-6431757Y8176964D02*
X-6171029Y8135391D01*
X-6018484Y8098727D01*
X-5908896Y8070008D01*
X-5829579Y8047183D01*
X-5775688Y8023227D01*
X-5742375Y7991117D01*
X-5724793Y7943827D01*
X-5718095Y7874334D01*
X-5717435Y7775613D01*
X-5718000Y7663270D01*
X-5718467Y7526293D01*
X-5721937Y7427860D01*
X-5731513Y7364182D01*
X-5750302Y7331469D01*
X-5781406Y7325932D01*
X-5827931Y7343780D01*
X-5892981Y7381226D01*
X-5930268Y7404166D01*
X-6097343Y7492454D01*
X-6261682Y7551273D01*
X-6418660Y7580615D01*
X-6563653Y7580468D01*
X-6692036Y7550822D01*
X-6799185Y7491665D01*
X-6878272Y7406357D01*
X-6908638Y7354471D01*
X-6925874Y7303842D01*
X-6933467Y7239314D01*
X-6934945Y7160213D01*
X-6923192Y7024479D01*
X-6885720Y6894875D01*
X-6818841Y6761885D01*
X-6729522Y6630175D01*
X-6655549Y6539035D01*
X-6555137Y6427264D01*
X-6434532Y6301139D01*
X-6299976Y6166939D01*
X-6157715Y6030940D01*
X-6013991Y5899419D01*
X-5924375Y5820713D01*
X-5654500Y5587990D01*
X-5654500Y4936167D01*
X-7834667Y4936167D01*
X-7834667Y5677000D01*
X-6627475Y5677000D01*
X-6845592Y5865307D01*
X-7066280Y6065333D01*
X-7250133Y6253396D01*
X-7399728Y6432978D01*
X-7517645Y6607563D01*
X-7606463Y6780634D01*
X-7668759Y6955674D01*
X-7677779Y6989319D01*
X-7699975Y7126060D01*
X-7705008Y7281520D01*
X-7693684Y7439243D01*
X-7666812Y7582773D01*
X-7645310Y7650721D01*
X-7582784Y7770137D01*
X-7491766Y7887620D01*
X-7384404Y7989388D01*
X-7291517Y8052083D01*
X-7112620Y8126665D01*
X-6906837Y8172443D01*
X-6678455Y8189262D01*
X-6431757Y8176964D01*
M02*
